<svg width="50" height="50" viewBox="0 0 50 50" fill="none" xmlns="http://www.w3.org/2000/svg">
<g filter="url(#filter0_d_129_34)">
<path d="M9.592 4C8.1089 4 6.68657 4.51984 5.63786 5.44517C4.58916 6.3705 4 7.6255 4 8.93412V38.5388C4 39.8474 4.58916 41.1025 5.63786 42.0278C6.68657 42.9531 8.1089 43.4729 9.592 43.4729H21.4945C20.7824 42.7119 20.1664 41.8847 19.6576 41.0059H9.592C8.85045 41.0059 8.13928 40.746 7.61492 40.2833C7.09057 39.8207 6.796 39.1932 6.796 38.5388H18.5587C17.811 36.2148 17.7799 33.7566 18.469 31.4184C19.1581 29.0802 20.5421 26.9468 22.4782 25.2384C24.4143 23.5301 26.8323 22.3089 29.4822 21.7009C32.1321 21.0929 34.9179 21.1203 37.552 21.7801V8.93412C37.552 7.6255 36.9628 6.3705 35.9142 5.44517C34.8654 4.51984 33.4431 4 31.96 4H9.592ZM11.689 10.1676H29.863C30.4192 10.1676 30.9526 10.3626 31.3458 10.7096C31.7391 11.0566 31.96 11.5272 31.96 12.0179C31.96 12.5087 31.7391 12.9793 31.3458 13.3263C30.9526 13.6733 30.4192 13.8682 29.863 13.8682H11.689C11.1328 13.8682 10.5994 13.6733 10.2062 13.3263C9.81293 12.9793 9.592 12.5087 9.592 12.0179C9.592 11.5272 9.81293 11.0566 10.2062 10.7096C10.5994 10.3626 11.1328 10.1676 11.689 10.1676ZM45.94 34.8382C45.94 37.7827 44.6144 40.6064 42.2548 42.6883C39.8953 44.7704 36.6949 45.94 33.358 45.94C30.021 45.94 26.8208 44.7704 24.4612 42.6883C22.1016 40.6064 20.776 37.7827 20.776 34.8382C20.776 31.8939 22.1016 29.07 24.4612 26.9881C26.8208 24.9062 30.021 23.7364 33.358 23.7364C36.6949 23.7364 39.8953 24.9062 42.2548 26.9881C44.6144 29.07 45.94 31.8939 45.94 34.8382ZM32.0159 29.988C31.8346 29.8782 31.6239 29.812 31.4047 29.796C31.1856 29.7799 30.9654 29.8146 30.766 29.8968C30.6034 29.9599 30.4561 30.0504 30.3327 30.1632C30.0723 30.3986 29.9267 30.7149 29.9272 31.044V38.6301C29.9256 38.7937 29.9606 38.9558 30.03 39.1074C30.0997 39.259 30.2025 39.397 30.3327 39.5134C30.4604 39.6253 30.6088 39.717 30.7717 39.7846C31.0554 39.8993 31.3772 39.917 31.6747 39.8341C31.8036 39.7966 31.9261 39.7434 32.0382 39.6761L38.4579 35.8103C38.6532 35.6967 38.8105 35.5391 38.9136 35.3538C39.0199 35.1672 39.0745 34.961 39.0731 34.7522C39.0716 34.5435 39.0141 34.3378 38.9053 34.1524C38.7959 33.9698 38.635 33.8151 38.4383 33.7033L32.0159 29.988Z" fill="url(#paint0_linear_129_34)" shape-rendering="crispEdges"/>
</g>
<defs>
<filter id="filter0_d_129_34" x="0" y="0" width="49.9399" height="49.9404" filterUnits="userSpaceOnUse" color-interpolation-filters="sRGB">
<feFlood flood-opacity="0" result="BackgroundImageFix"/>
<feColorMatrix in="SourceAlpha" type="matrix" values="0 0 0 0 0 0 0 0 0 0 0 0 0 0 0 0 0 0 127 0" result="hardAlpha"/>
<feOffset/>
<feGaussianBlur stdDeviation="2"/>
<feComposite in2="hardAlpha" operator="out"/>
<feColorMatrix type="matrix" values="0 0 0 0 0 0 0 0 0 0 0 0 0 0 0 0 0 0 0.68 0"/>
<feBlend mode="normal" in2="BackgroundImageFix" result="effect1_dropShadow_129_34"/>
<feBlend mode="normal" in="SourceGraphic" in2="effect1_dropShadow_129_34" result="shape"/>
</filter>
<linearGradient id="paint0_linear_129_34" x1="24.97" y1="4" x2="24.97" y2="45.94" gradientUnits="userSpaceOnUse">
<stop offset="0.9999" stop-color="#B67F4D"/>
<stop offset="1" stop-color="#CC996A" stop-opacity="0"/>
</linearGradient>
</defs>
</svg>
