<svg width="483" height="289" viewBox="0 0 483 289" fill="none" xmlns="http://www.w3.org/2000/svg">
<g filter="url(#filter0_d_186_3)">
<path d="M4 27.7461H441.331V285H4V27.7461Z" fill="url(#paint0_linear_186_3)" shape-rendering="crispEdges"/>
</g>
<path d="M413.627 27.7461H443.31V285H261.253L413.627 27.7461Z" fill="#89C1D2"/>
<path d="M120.753 27.7461H370.091H443.31V190.014L120.753 27.7461Z" fill="#A4C8CD"/>
<path d="M4 251.359L97.007 184.077L259.275 285H4V251.359Z" fill="#4984AE"/>
<path d="M126.035 63.7188V65.1777C126.035 67.334 125.262 69.1797 123.715 70.7148C122.168 72.2383 120.299 73 118.107 73C115.904 73 114.035 72.2383 112.5 70.7148C110.953 69.1797 110.18 67.334 110.18 65.1777V54.2617C110.18 52.1055 110.953 50.2656 112.5 48.7422C114.047 47.207 115.916 46.4395 118.107 46.4395C120.322 46.4395 122.191 47.207 123.715 48.7422C125.262 50.2891 126.035 52.1289 126.035 54.2617V54.4199L123.223 55.7031V54.209C123.223 52.8145 122.719 51.6191 121.711 50.623C120.703 49.627 119.502 49.1289 118.107 49.1289C116.689 49.1289 115.482 49.627 114.486 50.623C113.49 51.6074 112.992 52.8027 112.992 54.209V65.2305C112.992 66.625 113.49 67.8203 114.486 68.8164C115.482 69.8125 116.689 70.3105 118.107 70.3105C119.502 70.3105 120.703 69.8125 121.711 68.8164C122.719 67.832 123.223 66.6367 123.223 65.2305V65.0195L126.035 63.7188ZM134.613 61.1348V69.8359H147.129L145.898 72.6484H131.801V48.0039L134.613 46.7734L144.844 46.791L143.613 49.6035H134.613V58.3223H144.844L143.613 61.1348H134.613ZM150.539 73V47.6699L153.352 46.791H158.502C160.67 46.791 162.51 47.5645 164.021 49.1113C165.557 50.6699 166.324 52.5391 166.324 54.7188C166.324 56.9219 165.562 58.791 164.039 60.3262C163.336 61.041 162.562 61.5918 161.719 61.9785L166.535 71.7695L163.705 73L158.871 62.6465C158.754 62.6465 158.631 62.6465 158.502 62.6465H153.352V71.7695L150.539 73ZM153.352 49.6035V59.834H158.555C159.949 59.834 161.145 59.3359 162.141 58.3398C163.137 57.3438 163.635 56.1367 163.635 54.7188C163.635 53.3242 163.137 52.123 162.141 51.1152C161.145 50.1074 159.949 49.6035 158.555 49.6035H153.352ZM177.346 73V49.6035H169.436L170.666 46.791H188.068L186.838 49.6035H180.158V71.7695L177.346 73ZM192.533 46.791H206.631L205.4 49.6035H200.373V69.8359H206.631L205.4 72.6484H191.303L192.533 69.8359H197.561V49.6035H191.303L192.533 46.791ZM212.66 73V48.0039L215.473 46.7734L225.703 46.791L224.473 49.6035H215.473V58.3223H225.703L224.473 61.1348H215.473V71.7695L212.66 73ZM232.963 46.791H247.061L245.83 49.6035H240.803V69.8359H247.061L245.83 72.6484H231.732L232.963 69.8359H237.99V49.6035H231.732L232.963 46.791ZM267.539 63.7188V65.1777C267.539 67.334 266.766 69.1797 265.219 70.7148C263.672 72.2383 261.803 73 259.611 73C257.408 73 255.539 72.2383 254.004 70.7148C252.457 69.1797 251.684 67.334 251.684 65.1777V54.2617C251.684 52.1055 252.457 50.2656 254.004 48.7422C255.551 47.207 257.42 46.4395 259.611 46.4395C261.826 46.4395 263.695 47.207 265.219 48.7422C266.766 50.2891 267.539 52.1289 267.539 54.2617V54.4199L264.727 55.7031V54.209C264.727 52.8145 264.223 51.6191 263.215 50.623C262.207 49.627 261.006 49.1289 259.611 49.1289C258.193 49.1289 256.986 49.627 255.99 50.623C254.994 51.6074 254.496 52.8027 254.496 54.209V65.2305C254.496 66.625 254.994 67.8203 255.99 68.8164C256.986 69.8125 258.193 70.3105 259.611 70.3105C261.006 70.3105 262.207 69.8125 263.215 68.8164C264.223 67.832 264.727 66.6367 264.727 65.2305V65.0195L267.539 63.7188ZM271.898 73V54.2617C271.898 52.1055 272.672 50.2656 274.219 48.7422C275.766 47.207 277.635 46.4395 279.826 46.4395C282.018 46.4395 283.887 47.207 285.434 48.7422C286.98 50.2656 287.754 52.1055 287.754 54.2617V71.7695L284.941 73V61.1348H274.711V71.7695L271.898 73ZM274.711 58.3223H284.941V54.209C284.93 52.8027 284.426 51.6074 283.43 50.623C282.422 49.627 281.221 49.1289 279.826 49.1289C278.42 49.1289 277.213 49.627 276.205 50.623C275.209 51.6074 274.711 52.7852 274.711 54.1562V54.209V58.3223ZM298.635 73V49.6035H290.725L291.955 46.791H309.357L308.127 49.6035H301.447V71.7695L298.635 73ZM316.547 61.1348V69.8359H329.062L327.832 72.6484H313.734V48.0039L316.547 46.7734L326.777 46.791L325.547 49.6035H316.547V58.3223H326.777L325.547 61.1348H316.547Z" fill="#CDE4C7"/>
<path d="M183.516 203V177.336L185.379 176.457H196.523V176.633L195.1 179.656H187.031V188.129H196.523V188.305L195.1 191.328H187.031V199.801H199.459V199.977L198.035 203H183.516ZM204.996 203.703H204.82L201.762 202.262L207.211 193.332L201.762 184.42L204.838 182.961H205.014L209.285 190.467L213.539 182.961H213.715L216.791 184.42L211.342 193.332L216.791 202.262L213.732 203.703H213.557L209.285 196.18L204.996 203.703ZM234.914 195.213V199.045C234.914 200.592 233.818 201.799 231.627 202.666C230.443 203.123 229.107 203.352 227.619 203.352C226.131 203.352 224.795 203.123 223.611 202.666C221.42 201.799 220.324 200.592 220.324 199.045V187.619C220.324 186.072 221.42 184.865 223.611 183.998C224.795 183.541 226.131 183.312 227.619 183.312C229.107 183.312 230.443 183.541 231.627 183.998C233.818 184.865 234.914 186.072 234.914 187.619V189.869L231.574 191.451H231.398V188.234C231.398 187.648 231.029 187.209 230.291 186.916C229.564 186.623 228.674 186.477 227.619 186.477C226.564 186.477 225.668 186.623 224.93 186.916C224.203 187.209 223.84 187.648 223.84 188.234V198.43C223.84 199.016 224.203 199.455 224.93 199.748C225.668 200.041 226.564 200.188 227.619 200.188C228.674 200.188 229.564 200.041 230.291 199.748C231.029 199.455 231.398 199.016 231.398 198.43V196.795L234.738 195.213H234.914ZM254.777 195.213V199.045C254.777 200.592 253.682 201.799 251.49 202.666C250.307 203.123 248.971 203.352 247.482 203.352C245.994 203.352 244.658 203.123 243.475 202.666C241.283 201.799 240.188 200.592 240.188 199.045V187.619C240.188 186.072 241.283 184.865 243.475 183.998C244.658 183.541 245.994 183.312 247.482 183.312C248.971 183.312 250.307 183.541 251.49 183.998C253.682 184.865 254.777 186.072 254.777 187.619V189.869L243.703 198.43C243.703 199.016 244.066 199.455 244.793 199.748C245.531 200.041 246.428 200.188 247.482 200.188C248.537 200.188 249.428 200.041 250.154 199.748C250.893 199.455 251.262 199.016 251.262 198.43V196.795L254.602 195.213H254.777ZM243.703 194.721L251.262 188.639V188.234C251.262 187.648 250.893 187.209 250.154 186.916C249.428 186.623 248.537 186.477 247.482 186.477C246.428 186.477 245.531 186.623 244.793 186.916C244.066 187.209 243.703 187.648 243.703 188.234V194.721ZM260.93 203.703V177.336L264.27 175.754H264.445V202.121L261.105 203.703H260.93Z" fill="#E4E4E4"/>
<path d="M135.88 152.56C135.88 151.931 136.104 151.429 136.552 151.056C137 150.683 137.517 150.496 138.104 150.496C138.701 150.496 139.272 150.603 139.816 150.816C140.36 151.029 140.632 151.312 140.632 151.664C140.632 151.845 140.563 151.989 140.424 152.096C140.285 152.203 140.163 152.256 140.056 152.256C139.96 152.256 139.88 152.256 139.816 152.256C139.763 152.245 139.549 152.144 139.176 151.952C138.813 151.76 138.477 151.664 138.168 151.664C137.859 151.664 137.592 151.744 137.368 151.904C137.155 152.053 137.048 152.277 137.048 152.576C137.048 152.875 137.171 153.109 137.416 153.28C137.672 153.451 138.115 153.6 138.744 153.728C139.373 153.845 139.853 154.016 140.184 154.24C140.525 154.464 140.696 154.88 140.696 155.488C140.696 156.373 140.461 157.003 139.992 157.376C139.533 157.739 138.973 157.92 138.312 157.92C137.651 157.92 137.085 157.829 136.616 157.648C136.157 157.467 135.928 157.195 135.928 156.832C135.928 156.416 136.136 156.208 136.552 156.208C136.659 156.208 136.893 156.283 137.256 156.432C137.619 156.581 137.976 156.656 138.328 156.656C138.691 156.656 138.963 156.544 139.144 156.32C139.336 156.085 139.432 155.819 139.432 155.52C139.432 155.221 139.309 155.008 139.064 154.88C138.819 154.741 138.445 154.629 137.944 154.544C137.443 154.459 137.075 154.368 136.84 154.272C136.2 154.016 135.88 153.445 135.88 152.56ZM141.732 151.152C141.775 150.971 141.866 150.821 142.004 150.704C142.143 150.576 142.282 150.512 142.42 150.512C142.57 150.512 142.682 150.539 142.756 150.592C142.842 150.645 142.89 150.693 142.9 150.736C142.922 150.779 142.943 150.853 142.964 150.96C142.9 151.792 142.868 152.544 142.868 153.216C142.868 153.877 142.948 154.64 143.108 155.504C143.268 156.357 143.444 156.784 143.636 156.784C143.924 156.784 144.287 156.624 144.724 156.304C145.172 155.984 145.492 155.648 145.684 155.296C145.556 153.76 145.492 152.443 145.492 151.344C145.492 151.12 145.562 150.928 145.7 150.768C145.85 150.608 146.026 150.528 146.228 150.528C146.559 150.528 146.724 150.752 146.724 151.2C146.724 151.957 146.778 153.083 146.884 154.576C147.002 156.069 147.119 157.019 147.236 157.424C147.258 157.509 147.268 157.611 147.268 157.728C147.268 157.835 147.194 157.936 147.044 158.032C146.906 158.139 146.719 158.192 146.484 158.192C146.26 158.192 146.111 158.064 146.036 157.808C146.015 157.595 145.962 157.275 145.876 156.848C145.13 157.627 144.378 158.016 143.62 158.016C143.268 158.016 142.954 157.883 142.676 157.616C142.399 157.349 142.18 156.987 142.02 156.528C141.743 155.643 141.604 154.811 141.604 154.032C141.604 153.253 141.647 152.293 141.732 151.152ZM147.947 154.256C147.947 153.541 148.133 152.891 148.507 152.304C148.891 151.717 149.376 151.28 149.963 150.992C150.549 150.693 151.12 150.544 151.674 150.544C152.229 150.544 152.672 150.613 153.003 150.752C153.344 150.88 153.515 151.056 153.515 151.28C153.515 151.493 153.451 151.712 153.323 151.936C153.205 152.149 153.045 152.256 152.843 152.256C152.768 152.256 152.56 152.197 152.219 152.08C151.888 151.952 151.675 151.888 151.579 151.888C150.96 151.888 150.432 152.117 149.995 152.576C149.557 153.024 149.339 153.621 149.339 154.368C149.339 155.115 149.456 155.675 149.691 156.048C149.936 156.411 150.352 156.592 150.939 156.592C151.173 156.592 151.573 156.459 152.139 156.192C152.715 155.915 153.072 155.776 153.211 155.776C153.349 155.776 153.461 155.819 153.547 155.904C153.632 155.989 153.675 156.096 153.675 156.224C153.675 156.48 153.509 156.752 153.179 157.04C152.859 157.317 152.459 157.552 151.979 157.744C151.499 157.925 151.067 158.016 150.683 158.016C149.829 158.016 149.157 157.68 148.667 157.008C148.187 156.336 147.947 155.419 147.947 154.256ZM154.15 154.256C154.15 153.541 154.336 152.891 154.71 152.304C155.094 151.717 155.579 151.28 156.166 150.992C156.752 150.693 157.323 150.544 157.878 150.544C158.432 150.544 158.875 150.613 159.206 150.752C159.547 150.88 159.718 151.056 159.718 151.28C159.718 151.493 159.654 151.712 159.526 151.936C159.408 152.149 159.248 152.256 159.046 152.256C158.971 152.256 158.763 152.197 158.422 152.08C158.091 151.952 157.878 151.888 157.782 151.888C157.163 151.888 156.635 152.117 156.198 152.576C155.76 153.024 155.542 153.621 155.542 154.368C155.542 155.115 155.659 155.675 155.894 156.048C156.139 156.411 156.555 156.592 157.142 156.592C157.376 156.592 157.776 156.459 158.342 156.192C158.918 155.915 159.275 155.776 159.414 155.776C159.552 155.776 159.664 155.819 159.75 155.904C159.835 155.989 159.878 156.096 159.878 156.224C159.878 156.48 159.712 156.752 159.382 157.04C159.062 157.317 158.662 157.552 158.182 157.744C157.702 157.925 157.27 158.016 156.886 158.016C156.032 158.016 155.36 157.68 154.87 157.008C154.39 156.336 154.15 155.419 154.15 154.256ZM162.881 150.592C163.446 150.592 163.985 150.757 164.497 151.088C165.009 151.419 165.265 151.829 165.265 152.32C165.265 152.8 165.057 153.269 164.641 153.728C164.225 154.176 163.67 154.448 162.977 154.544C162.678 154.587 162.23 154.608 161.633 154.608C161.75 155.515 161.979 156.112 162.321 156.4C162.427 156.517 162.571 156.576 162.753 156.576C163.414 156.576 163.969 156.368 164.417 155.952C164.865 155.525 165.185 155.312 165.377 155.312C165.462 155.312 165.59 155.392 165.761 155.552C165.931 155.712 166.017 155.861 166.017 156C166.017 156.277 165.681 156.677 165.009 157.2C164.71 157.445 164.347 157.653 163.921 157.824C163.505 157.984 163.115 158.064 162.753 158.064C161.825 158.064 161.142 157.467 160.705 156.272C160.427 155.536 160.289 154.725 160.289 153.84C160.289 152.955 160.497 152.192 160.913 151.552C161.329 150.912 161.985 150.592 162.881 150.592ZM162.961 151.696C162.555 151.696 162.209 151.925 161.921 152.384C161.814 152.544 161.713 152.907 161.617 153.472C163.11 153.472 163.857 153.104 163.857 152.368C163.857 151.92 163.558 151.696 162.961 151.696ZM167.224 152.56C167.224 151.931 167.448 151.429 167.896 151.056C168.344 150.683 168.861 150.496 169.448 150.496C170.045 150.496 170.616 150.603 171.16 150.816C171.704 151.029 171.976 151.312 171.976 151.664C171.976 151.845 171.906 151.989 171.768 152.096C171.629 152.203 171.506 152.256 171.4 152.256C171.304 152.256 171.224 152.256 171.16 152.256C171.106 152.245 170.893 152.144 170.52 151.952C170.157 151.76 169.821 151.664 169.512 151.664C169.202 151.664 168.936 151.744 168.712 151.904C168.498 152.053 168.392 152.277 168.392 152.576C168.392 152.875 168.514 153.109 168.76 153.28C169.016 153.451 169.458 153.6 170.088 153.728C170.717 153.845 171.197 154.016 171.528 154.24C171.869 154.464 172.04 154.88 172.04 155.488C172.04 156.373 171.805 157.003 171.336 157.376C170.877 157.739 170.317 157.92 169.656 157.92C168.994 157.92 168.429 157.829 167.96 157.648C167.501 157.467 167.272 157.195 167.272 156.832C167.272 156.416 167.48 156.208 167.896 156.208C168.002 156.208 168.237 156.283 168.6 156.432C168.962 156.581 169.32 156.656 169.672 156.656C170.034 156.656 170.306 156.544 170.488 156.32C170.68 156.085 170.776 155.819 170.776 155.52C170.776 155.221 170.653 155.008 170.408 154.88C170.162 154.741 169.789 154.629 169.288 154.544C168.786 154.459 168.418 154.368 168.184 154.272C167.544 154.016 167.224 153.445 167.224 152.56ZM173.38 152.56C173.38 151.931 173.604 151.429 174.052 151.056C174.5 150.683 175.017 150.496 175.604 150.496C176.201 150.496 176.772 150.603 177.316 150.816C177.86 151.029 178.132 151.312 178.132 151.664C178.132 151.845 178.063 151.989 177.924 152.096C177.785 152.203 177.663 152.256 177.556 152.256C177.46 152.256 177.38 152.256 177.316 152.256C177.263 152.245 177.049 152.144 176.676 151.952C176.313 151.76 175.977 151.664 175.668 151.664C175.359 151.664 175.092 151.744 174.868 151.904C174.655 152.053 174.548 152.277 174.548 152.576C174.548 152.875 174.671 153.109 174.916 153.28C175.172 153.451 175.615 153.6 176.244 153.728C176.873 153.845 177.353 154.016 177.684 154.24C178.025 154.464 178.196 154.88 178.196 155.488C178.196 156.373 177.961 157.003 177.492 157.376C177.033 157.739 176.473 157.92 175.812 157.92C175.151 157.92 174.585 157.829 174.116 157.648C173.657 157.467 173.428 157.195 173.428 156.832C173.428 156.416 173.636 156.208 174.052 156.208C174.159 156.208 174.393 156.283 174.756 156.432C175.119 156.581 175.476 156.656 175.828 156.656C176.191 156.656 176.463 156.544 176.644 156.32C176.836 156.085 176.932 155.819 176.932 155.52C176.932 155.221 176.809 155.008 176.564 154.88C176.319 154.741 175.945 154.629 175.444 154.544C174.943 154.459 174.575 154.368 174.34 154.272C173.7 154.016 173.38 153.445 173.38 152.56ZM181.44 146.8C181.611 146.672 181.755 146.603 181.872 146.592C182 146.571 182.283 146.56 182.72 146.56C183.168 146.56 183.536 146.624 183.824 146.752C184.112 146.88 184.256 147.136 184.256 147.52C184.256 147.904 184.102 148.096 183.792 148.096C183.728 148.096 183.547 148.043 183.248 147.936C182.95 147.819 182.758 147.76 182.672 147.76C182.299 147.76 182.075 147.984 182 148.432C181.979 148.592 181.968 148.923 181.968 149.424C181.968 149.915 181.968 150.32 181.968 150.64H183.088C183.558 150.661 183.792 150.827 183.792 151.136C183.792 151.584 183.472 151.819 182.832 151.84C182.736 151.851 182.619 151.856 182.48 151.856C182.342 151.856 182.182 151.851 182 151.84C182.022 152.267 182.07 153.029 182.144 154.128C182.219 155.216 182.256 156.277 182.256 157.312C182.256 157.525 182.171 157.696 182 157.824C181.83 157.952 181.654 158.016 181.472 158.016C181.184 158.016 181.04 157.845 181.04 157.504C181.04 156.544 181.003 155.611 180.928 154.704C180.854 153.797 180.8 152.843 180.768 151.84C179.808 151.84 179.248 151.744 179.088 151.552C179.024 151.477 178.992 151.381 178.992 151.264C178.992 150.987 179.104 150.805 179.328 150.72C179.563 150.635 179.83 150.592 180.128 150.592C180.427 150.592 180.64 150.592 180.768 150.592C180.8 148.853 180.896 147.776 181.056 147.36C181.152 147.104 181.28 146.917 181.44 146.8ZM184.982 151.152C185.025 150.971 185.116 150.821 185.254 150.704C185.393 150.576 185.532 150.512 185.67 150.512C185.82 150.512 185.932 150.539 186.006 150.592C186.092 150.645 186.14 150.693 186.15 150.736C186.172 150.779 186.193 150.853 186.214 150.96C186.15 151.792 186.118 152.544 186.118 153.216C186.118 153.877 186.198 154.64 186.358 155.504C186.518 156.357 186.694 156.784 186.886 156.784C187.174 156.784 187.537 156.624 187.974 156.304C188.422 155.984 188.742 155.648 188.934 155.296C188.806 153.76 188.742 152.443 188.742 151.344C188.742 151.12 188.812 150.928 188.95 150.768C189.1 150.608 189.276 150.528 189.478 150.528C189.809 150.528 189.974 150.752 189.974 151.2C189.974 151.957 190.028 153.083 190.134 154.576C190.252 156.069 190.369 157.019 190.486 157.424C190.508 157.509 190.518 157.611 190.518 157.728C190.518 157.835 190.444 157.936 190.294 158.032C190.156 158.139 189.969 158.192 189.734 158.192C189.51 158.192 189.361 158.064 189.286 157.808C189.265 157.595 189.212 157.275 189.126 156.848C188.38 157.627 187.628 158.016 186.87 158.016C186.518 158.016 186.204 157.883 185.926 157.616C185.649 157.349 185.43 156.987 185.27 156.528C184.993 155.643 184.854 154.811 184.854 154.032C184.854 153.253 184.897 152.293 184.982 151.152ZM197.229 155.616C197.602 155.616 197.789 155.931 197.789 156.56C197.789 156.901 197.602 157.243 197.229 157.584C196.866 157.915 196.466 158.08 196.029 158.08C195.378 158.08 194.898 157.749 194.589 157.088C194.45 157.355 194.226 157.589 193.917 157.792C193.618 157.984 193.314 158.08 193.005 158.08C192.706 158.08 192.445 158.021 192.221 157.904C192.007 157.776 191.831 157.589 191.693 157.344C191.565 157.099 191.458 156.864 191.373 156.64C191.298 156.405 191.239 156.123 191.197 155.792C191.143 155.259 191.101 154.405 191.069 153.232C191.047 152.048 191.037 150.923 191.037 149.856C191.037 148.779 191.047 148.043 191.069 147.648C191.101 147.243 191.165 146.981 191.261 146.864C191.367 146.736 191.527 146.672 191.741 146.672C192.21 146.672 192.445 146.859 192.445 147.232C192.445 147.52 192.418 148.272 192.365 149.488C192.322 150.704 192.301 151.792 192.301 152.752C192.301 153.712 192.338 154.485 192.413 155.072C192.541 156.096 192.722 156.608 192.957 156.608C193.191 156.608 193.373 156.443 193.501 156.112C193.543 155.984 193.623 155.872 193.741 155.776C193.858 155.669 194.007 155.616 194.189 155.616H194.221C194.125 154.677 194.077 153.216 194.077 151.232C194.077 149.237 194.087 148.043 194.109 147.648C194.141 147.243 194.205 146.981 194.301 146.864C194.407 146.736 194.567 146.672 194.781 146.672C195.25 146.672 195.485 146.859 195.485 147.232C195.485 147.52 195.458 148.272 195.405 149.488C195.362 150.704 195.341 151.792 195.341 152.752C195.341 153.712 195.378 154.485 195.453 155.072C195.581 156.096 195.762 156.608 195.997 156.608C196.231 156.608 196.413 156.443 196.541 156.112C196.583 155.984 196.663 155.872 196.781 155.776C196.898 155.669 197.047 155.616 197.229 155.616ZM203.415 150.608C203.554 150.608 203.687 150.656 203.815 150.752C203.954 150.848 204.023 150.955 204.023 151.072C204.023 151.381 203.57 153.056 202.663 156.096C201.756 159.136 201.084 161.269 200.647 162.496C200.551 162.784 200.402 162.928 200.199 162.928C199.996 162.928 199.836 162.853 199.719 162.704C199.602 162.565 199.543 162.357 199.543 162.08C199.543 161.803 199.719 161.136 200.071 160.08C200.434 159.035 200.652 158.368 200.727 158.08C200.46 157.632 199.559 155.392 198.023 151.36C198.002 151.307 197.991 151.237 197.991 151.152C197.991 151.067 198.055 150.955 198.183 150.816C198.311 150.677 198.487 150.608 198.711 150.608C198.935 150.608 199.116 150.72 199.255 150.944C199.404 151.328 199.65 152 199.991 152.96C200.332 153.909 200.594 154.597 200.775 155.024C200.967 155.451 201.148 155.893 201.319 156.352C201.468 155.851 201.724 154.88 202.087 153.44C202.45 151.989 202.658 151.163 202.711 150.96C202.754 150.725 202.988 150.608 203.415 150.608ZM208.54 154.256C208.54 153.541 208.727 152.891 209.1 152.304C209.484 151.717 209.97 151.28 210.556 150.992C211.143 150.693 211.714 150.544 212.268 150.544C212.823 150.544 213.266 150.613 213.596 150.752C213.938 150.88 214.108 151.056 214.108 151.28C214.108 151.493 214.044 151.712 213.916 151.936C213.799 152.149 213.639 152.256 213.436 152.256C213.362 152.256 213.154 152.197 212.812 152.08C212.482 151.952 212.268 151.888 212.172 151.888C211.554 151.888 211.026 152.117 210.588 152.576C210.151 153.024 209.932 153.621 209.932 154.368C209.932 155.115 210.05 155.675 210.284 156.048C210.53 156.411 210.946 156.592 211.532 156.592C211.767 156.592 212.167 156.459 212.732 156.192C213.308 155.915 213.666 155.776 213.804 155.776C213.943 155.776 214.055 155.819 214.14 155.904C214.226 155.989 214.268 156.096 214.268 156.224C214.268 156.48 214.103 156.752 213.772 157.04C213.452 157.317 213.052 157.552 212.572 157.744C212.092 157.925 211.66 158.016 211.276 158.016C210.423 158.016 209.751 157.68 209.26 157.008C208.78 156.336 208.54 155.419 208.54 154.256ZM217.799 150.544C218.567 150.544 219.197 150.912 219.687 151.648C220.189 152.384 220.439 153.269 220.439 154.304C220.439 155.328 220.183 156.203 219.671 156.928C219.17 157.653 218.498 158.016 217.655 158.016C216.823 158.016 216.151 157.648 215.639 156.912C215.127 156.165 214.871 155.339 214.871 154.432C214.871 153.269 215.106 152.341 215.575 151.648C216.077 150.912 216.818 150.544 217.799 150.544ZM217.607 151.856C217.159 151.856 216.791 152.091 216.503 152.56C216.215 153.029 216.071 153.525 216.071 154.048C216.071 154.859 216.231 155.477 216.551 155.904C216.871 156.331 217.234 156.544 217.639 156.544C218.365 156.544 218.829 156.229 219.031 155.6C219.117 155.301 219.159 154.928 219.159 154.48C219.159 152.731 218.642 151.856 217.607 151.856ZM222.333 158.016C222.055 158.016 221.89 157.861 221.837 157.552C221.837 155.397 221.709 153.477 221.453 151.792C221.453 151.579 221.527 151.387 221.677 151.216C221.837 151.045 222.013 150.96 222.205 150.96C222.407 150.96 222.557 151.072 222.653 151.296C223.047 150.773 223.575 150.512 224.237 150.512C225.079 150.512 225.73 150.917 226.189 151.728C226.722 150.96 227.426 150.576 228.301 150.576C229.186 150.576 229.847 150.928 230.285 151.632C230.573 152.069 230.775 152.645 230.893 153.36C231.01 154.075 231.069 155.088 231.069 156.4C231.069 156.912 231.015 157.312 230.909 157.6C230.802 157.877 230.578 158.016 230.237 158.016C229.959 158.016 229.821 157.84 229.821 157.488L229.869 155.488C229.869 153.088 229.245 151.888 227.997 151.888C227.602 151.888 227.325 152.027 227.165 152.304C226.983 152.635 226.877 152.981 226.845 153.344C226.802 153.984 226.781 154.565 226.781 155.088V157.408C226.781 157.579 226.695 157.723 226.525 157.84C226.354 157.957 226.178 158.016 225.997 158.016C225.762 158.016 225.613 157.861 225.549 157.552L225.597 154.24C225.597 153.067 225.399 152.336 225.005 152.048C224.813 151.909 224.519 151.84 224.125 151.84C223.741 151.84 223.453 151.984 223.261 152.272C223.079 152.56 222.989 153.024 222.989 153.664L223.085 156.64C223.085 157.557 222.834 158.016 222.333 158.016ZM234.824 157.984C234.461 157.984 234.125 157.861 233.816 157.616C233.816 157.616 233.746 157.557 233.608 157.44V162.24C233.544 162.453 233.432 162.629 233.272 162.768C233.112 162.917 232.941 162.992 232.76 162.992C232.482 162.992 232.344 162.805 232.344 162.432V151.28C232.408 151.003 232.482 150.805 232.568 150.688C232.664 150.571 232.808 150.512 233 150.512C233.202 150.512 233.33 150.56 233.384 150.656C233.448 150.741 233.522 150.987 233.608 151.392C233.65 151.179 233.821 150.981 234.12 150.8C234.418 150.619 234.818 150.528 235.32 150.528C236.408 150.528 237.181 150.923 237.64 151.712C238.098 152.501 238.328 153.435 238.328 154.512C238.328 155.579 238.013 156.427 237.384 157.056C236.765 157.675 235.912 157.984 234.824 157.984ZM233.608 153.184V156.16C233.672 156.192 233.746 156.245 233.832 156.32C234.141 156.597 234.477 156.736 234.84 156.736C236.312 156.736 237.048 155.979 237.048 154.464C237.048 153.173 236.717 152.357 236.056 152.016C235.778 151.867 235.437 151.792 235.032 151.792C234.637 151.845 234.301 152.021 234.024 152.32C233.746 152.608 233.608 152.896 233.608 153.184ZM239.091 147.648C239.123 147.243 239.187 146.981 239.283 146.864C239.39 146.736 239.555 146.672 239.779 146.672C240.238 146.672 240.467 146.859 240.467 147.232C240.467 147.52 240.441 148.272 240.387 149.488C240.345 150.704 240.323 151.792 240.323 152.752C240.323 153.712 240.361 154.485 240.435 155.072C240.563 156.096 240.745 156.608 240.979 156.608C241.214 156.608 241.39 156.443 241.507 156.112C241.561 155.984 241.646 155.872 241.763 155.776C241.881 155.669 242.03 155.616 242.211 155.616C242.585 155.616 242.771 155.931 242.771 156.56C242.771 156.901 242.585 157.243 242.211 157.584C241.849 157.915 241.486 158.08 241.123 158.08C240.761 158.08 240.467 158.021 240.243 157.904C240.03 157.776 239.854 157.589 239.715 157.344C239.587 157.099 239.481 156.864 239.395 156.64C239.321 156.405 239.267 156.123 239.235 155.792C239.171 155.259 239.123 154.405 239.091 153.232C239.07 152.048 239.059 150.923 239.059 149.856C239.059 148.779 239.07 148.043 239.091 147.648ZM245.693 150.592C246.259 150.592 246.797 150.757 247.309 151.088C247.821 151.419 248.077 151.829 248.077 152.32C248.077 152.8 247.869 153.269 247.453 153.728C247.037 154.176 246.483 154.448 245.789 154.544C245.491 154.587 245.043 154.608 244.445 154.608C244.563 155.515 244.792 156.112 245.133 156.4C245.24 156.517 245.384 156.576 245.565 156.576C246.227 156.576 246.781 156.368 247.229 155.952C247.677 155.525 247.997 155.312 248.189 155.312C248.275 155.312 248.403 155.392 248.573 155.552C248.744 155.712 248.829 155.861 248.829 156C248.829 156.277 248.493 156.677 247.821 157.2C247.523 157.445 247.16 157.653 246.733 157.824C246.317 157.984 245.928 158.064 245.565 158.064C244.637 158.064 243.955 157.467 243.517 156.272C243.24 155.536 243.101 154.725 243.101 153.84C243.101 152.955 243.309 152.192 243.725 151.552C244.141 150.912 244.797 150.592 245.693 150.592ZM245.773 151.696C245.368 151.696 245.021 151.925 244.733 152.384C244.627 152.544 244.525 152.907 244.429 153.472C245.923 153.472 246.669 153.104 246.669 152.368C246.669 151.92 246.371 151.696 245.773 151.696ZM250.164 150.528L250.964 150.544C251.146 150.544 251.247 150.539 251.268 150.528V147.248C251.279 147.067 251.37 146.912 251.54 146.784C251.711 146.656 251.871 146.592 252.02 146.592C252.17 146.592 252.287 146.64 252.372 146.736C252.468 146.832 252.511 146.981 252.5 147.184C252.49 147.387 252.484 148.496 252.484 150.512L254.356 150.448C254.676 150.448 254.836 150.635 254.836 151.008C254.836 151.285 254.751 151.493 254.58 151.632C254.42 151.771 254.244 151.845 254.052 151.856C253.871 151.867 253.69 151.872 253.508 151.872L252.532 151.856C252.532 152.293 252.575 153.157 252.66 154.448C252.756 155.739 252.831 156.576 252.884 156.96C252.938 157.333 252.948 157.579 252.916 157.696C252.884 157.803 252.826 157.877 252.74 157.92C252.602 157.984 252.415 158.016 252.18 158.016C251.946 158.016 251.807 157.888 251.764 157.632C251.551 156.235 251.407 154.315 251.332 151.872C251.236 151.883 250.868 151.888 250.228 151.888C249.588 151.888 249.268 151.701 249.268 151.328C249.268 150.795 249.567 150.528 250.164 150.528ZM257.568 150.592C258.134 150.592 258.672 150.757 259.184 151.088C259.696 151.419 259.952 151.829 259.952 152.32C259.952 152.8 259.744 153.269 259.328 153.728C258.912 154.176 258.358 154.448 257.664 154.544C257.366 154.587 256.918 154.608 256.32 154.608C256.438 155.515 256.667 156.112 257.008 156.4C257.115 156.517 257.259 156.576 257.44 156.576C258.102 156.576 258.656 156.368 259.104 155.952C259.552 155.525 259.872 155.312 260.064 155.312C260.15 155.312 260.278 155.392 260.448 155.552C260.619 155.712 260.704 155.861 260.704 156C260.704 156.277 260.368 156.677 259.696 157.2C259.398 157.445 259.035 157.653 258.608 157.824C258.192 157.984 257.803 158.064 257.44 158.064C256.512 158.064 255.83 157.467 255.392 156.272C255.115 155.536 254.976 154.725 254.976 153.84C254.976 152.955 255.184 152.192 255.6 151.552C256.016 150.912 256.672 150.592 257.568 150.592ZM257.648 151.696C257.243 151.696 256.896 151.925 256.608 152.384C256.502 152.544 256.4 152.907 256.304 153.472C257.798 153.472 258.544 153.104 258.544 152.368C258.544 151.92 258.246 151.696 257.648 151.696ZM265.463 150.512L265.447 147.424C265.447 146.848 265.629 146.56 265.991 146.56C266.365 146.56 266.573 146.72 266.615 147.04C266.637 147.179 266.663 148.016 266.695 149.552C266.727 151.088 266.775 152.528 266.839 153.872C266.914 155.216 266.951 156.469 266.951 157.632C266.951 157.952 266.711 158.112 266.231 158.112C265.911 158.112 265.751 157.888 265.751 157.44C265.293 157.803 264.749 157.984 264.119 157.984C263.319 157.984 262.669 157.685 262.167 157.088C261.677 156.491 261.431 155.755 261.431 154.88C261.431 154.005 261.607 153.189 261.959 152.432C262.322 151.664 262.882 151.115 263.639 150.784C264.109 150.581 264.562 150.48 264.999 150.48C265.159 150.48 265.314 150.491 265.463 150.512ZM265.543 152.704C265.469 152.469 265.378 152.293 265.271 152.176C265.165 152.048 265.047 151.973 264.919 151.952C264.802 151.92 264.658 151.904 264.487 151.904C264.317 151.904 264.109 151.968 263.863 152.096C263.618 152.224 263.41 152.432 263.239 152.72C262.898 153.296 262.727 153.904 262.727 154.544C262.727 155.173 262.85 155.691 263.095 156.096C263.351 156.491 263.709 156.688 264.167 156.688C264.637 156.688 265.005 156.459 265.271 156C265.538 155.541 265.671 154.955 265.671 154.24C265.671 153.44 265.629 152.928 265.543 152.704ZM271.961 150.528L272.761 150.544C272.942 150.544 273.044 150.539 273.065 150.528V147.248C273.076 147.067 273.166 146.912 273.337 146.784C273.508 146.656 273.668 146.592 273.817 146.592C273.966 146.592 274.084 146.64 274.169 146.736C274.265 146.832 274.308 146.981 274.297 147.184C274.286 147.387 274.281 148.496 274.281 150.512L276.153 150.448C276.473 150.448 276.633 150.635 276.633 151.008C276.633 151.285 276.548 151.493 276.377 151.632C276.217 151.771 276.041 151.845 275.849 151.856C275.668 151.867 275.486 151.872 275.305 151.872L274.329 151.856C274.329 152.293 274.372 153.157 274.457 154.448C274.553 155.739 274.628 156.576 274.681 156.96C274.734 157.333 274.745 157.579 274.713 157.696C274.681 157.803 274.622 157.877 274.537 157.92C274.398 157.984 274.212 158.016 273.977 158.016C273.742 158.016 273.604 157.888 273.561 157.632C273.348 156.235 273.204 154.315 273.129 151.872C273.033 151.883 272.665 151.888 272.025 151.888C271.385 151.888 271.065 151.701 271.065 151.328C271.065 150.795 271.364 150.528 271.961 150.528ZM279.365 150.592C279.93 150.592 280.469 150.757 280.981 151.088C281.493 151.419 281.749 151.829 281.749 152.32C281.749 152.8 281.541 153.269 281.125 153.728C280.709 154.176 280.154 154.448 279.461 154.544C279.162 154.587 278.714 154.608 278.117 154.608C278.234 155.515 278.464 156.112 278.805 156.4C278.912 156.517 279.056 156.576 279.237 156.576C279.898 156.576 280.453 156.368 280.901 155.952C281.349 155.525 281.669 155.312 281.861 155.312C281.946 155.312 282.074 155.392 282.245 155.552C282.416 155.712 282.501 155.861 282.501 156C282.501 156.277 282.165 156.677 281.493 157.2C281.194 157.445 280.832 157.653 280.405 157.824C279.989 157.984 279.6 158.064 279.237 158.064C278.309 158.064 277.626 157.467 277.189 156.272C276.912 155.536 276.773 154.725 276.773 153.84C276.773 152.955 276.981 152.192 277.397 151.552C277.813 150.912 278.469 150.592 279.365 150.592ZM279.445 151.696C279.04 151.696 278.693 151.925 278.405 152.384C278.298 152.544 278.197 152.907 278.101 153.472C279.594 153.472 280.341 153.104 280.341 152.368C280.341 151.92 280.042 151.696 279.445 151.696ZM283.708 152.56C283.708 151.931 283.932 151.429 284.38 151.056C284.828 150.683 285.345 150.496 285.932 150.496C286.529 150.496 287.1 150.603 287.644 150.816C288.188 151.029 288.46 151.312 288.46 151.664C288.46 151.845 288.391 151.989 288.252 152.096C288.113 152.203 287.991 152.256 287.884 152.256C287.788 152.256 287.708 152.256 287.644 152.256C287.591 152.245 287.377 152.144 287.004 151.952C286.641 151.76 286.305 151.664 285.996 151.664C285.687 151.664 285.42 151.744 285.196 151.904C284.983 152.053 284.876 152.277 284.876 152.576C284.876 152.875 284.999 153.109 285.244 153.28C285.5 153.451 285.943 153.6 286.572 153.728C287.201 153.845 287.681 154.016 288.012 154.24C288.353 154.464 288.524 154.88 288.524 155.488C288.524 156.373 288.289 157.003 287.82 157.376C287.361 157.739 286.801 157.92 286.14 157.92C285.479 157.92 284.913 157.829 284.444 157.648C283.985 157.467 283.756 157.195 283.756 156.832C283.756 156.416 283.964 156.208 284.38 156.208C284.487 156.208 284.721 156.283 285.084 156.432C285.447 156.581 285.804 156.656 286.156 156.656C286.519 156.656 286.791 156.544 286.972 156.32C287.164 156.085 287.26 155.819 287.26 155.52C287.26 155.221 287.137 155.008 286.892 154.88C286.647 154.741 286.273 154.629 285.772 154.544C285.271 154.459 284.903 154.368 284.668 154.272C284.028 154.016 283.708 153.445 283.708 152.56ZM289.992 150.528L290.792 150.544C290.974 150.544 291.075 150.539 291.096 150.528V147.248C291.107 147.067 291.198 146.912 291.368 146.784C291.539 146.656 291.699 146.592 291.848 146.592C291.998 146.592 292.115 146.64 292.2 146.736C292.296 146.832 292.339 146.981 292.328 147.184C292.318 147.387 292.312 148.496 292.312 150.512L294.184 150.448C294.504 150.448 294.664 150.635 294.664 151.008C294.664 151.285 294.579 151.493 294.408 151.632C294.248 151.771 294.072 151.845 293.88 151.856C293.699 151.867 293.518 151.872 293.336 151.872L292.36 151.856C292.36 152.293 292.403 153.157 292.488 154.448C292.584 155.739 292.659 156.576 292.712 156.96C292.766 157.333 292.776 157.579 292.744 157.696C292.712 157.803 292.654 157.877 292.568 157.92C292.43 157.984 292.243 158.016 292.008 158.016C291.774 158.016 291.635 157.888 291.592 157.632C291.379 156.235 291.235 154.315 291.16 151.872C291.064 151.883 290.696 151.888 290.056 151.888C289.416 151.888 289.096 151.701 289.096 151.328C289.096 150.795 289.395 150.528 289.992 150.528ZM301.612 150.544C302.38 150.544 303.009 150.912 303.5 151.648C304.001 152.384 304.252 153.269 304.252 154.304C304.252 155.328 303.996 156.203 303.484 156.928C302.983 157.653 302.311 158.016 301.468 158.016C300.636 158.016 299.964 157.648 299.452 156.912C298.94 156.165 298.684 155.339 298.684 154.432C298.684 153.269 298.919 152.341 299.388 151.648C299.889 150.912 300.631 150.544 301.612 150.544ZM301.42 151.856C300.972 151.856 300.604 152.091 300.316 152.56C300.028 153.029 299.884 153.525 299.884 154.048C299.884 154.859 300.044 155.477 300.364 155.904C300.684 156.331 301.047 156.544 301.452 156.544C302.177 156.544 302.641 156.229 302.844 155.6C302.929 155.301 302.972 154.928 302.972 154.48C302.972 152.731 302.455 151.856 301.42 151.856ZM307.409 146.8C307.58 146.672 307.724 146.603 307.841 146.592C307.969 146.571 308.252 146.56 308.689 146.56C309.137 146.56 309.505 146.624 309.793 146.752C310.081 146.88 310.225 147.136 310.225 147.52C310.225 147.904 310.07 148.096 309.761 148.096C309.697 148.096 309.516 148.043 309.217 147.936C308.918 147.819 308.726 147.76 308.641 147.76C308.268 147.76 308.044 147.984 307.969 148.432C307.948 148.592 307.937 148.923 307.937 149.424C307.937 149.915 307.937 150.32 307.937 150.64H309.057C309.526 150.661 309.761 150.827 309.761 151.136C309.761 151.584 309.441 151.819 308.801 151.84C308.705 151.851 308.588 151.856 308.449 151.856C308.31 151.856 308.15 151.851 307.969 151.84C307.99 152.267 308.038 153.029 308.113 154.128C308.188 155.216 308.225 156.277 308.225 157.312C308.225 157.525 308.14 157.696 307.969 157.824C307.798 157.952 307.622 158.016 307.441 158.016C307.153 158.016 307.009 157.845 307.009 157.504C307.009 156.544 306.972 155.611 306.897 154.704C306.822 153.797 306.769 152.843 306.737 151.84C305.777 151.84 305.217 151.744 305.057 151.552C304.993 151.477 304.961 151.381 304.961 151.264C304.961 150.987 305.073 150.805 305.297 150.72C305.532 150.635 305.798 150.592 306.097 150.592C306.396 150.592 306.609 150.592 306.737 150.592C306.769 148.853 306.865 147.776 307.025 147.36C307.121 147.104 307.249 146.917 307.409 146.8Z" fill="#F1F1F1"/>
<path d="M114.817 59.4082H25.7676V263.232H421.542V61.3871H324.577" stroke="#CDE4C7" stroke-width="0.5"/>
<g filter="url(#filter1_d_186_3)">
<path d="M424.929 156.403L405.248 168.833V112.124H445.145V168.833L425.463 156.403L425.196 156.234L424.929 156.403Z" fill="#81A2C9" stroke="#F3F096"/>
<path d="M372.57 34.9612L425.197 4.57735L477.823 34.9612L477.823 43.8205L477.823 95.7289L425.197 126.113L372.57 95.7289V34.9612Z" fill="#81A2C9" stroke="#7C868E"/>
<line x1="372.962" y1="38.4404" x2="372.962" y2="92.2519" stroke="#F3F096"/>
<path d="M476.951 37.6406V92.2599" stroke="#F3F096"/>
<path d="M422.481 7.09242L375.689 34.1336" stroke="#F3F096"/>
<path d="M428.426 7.22886L474.704 34.1342" stroke="#F3F096"/>
<path d="M422.044 123.597L375.252 96.5558" stroke="#F3F096"/>
<path d="M428.425 123.46L474.699 96.5581" stroke="#F3F096"/>
<g filter="url(#filter2_d_186_3)">
<path d="M393.181 94.9093C393.181 95.1546 392.968 95.2773 392.541 95.2773C392.115 95.2773 391.901 95.1546 391.901 94.9093V91.2453C391.357 91.1599 390.952 90.9466 390.685 90.6053C390.419 90.2639 390.2 89.7573 390.029 89.0853L388.781 84.1573C388.685 83.8159 388.637 83.6186 388.637 83.5653C388.637 83.3733 388.835 83.2773 389.229 83.2773C389.635 83.2773 389.864 83.3999 389.917 83.6453L391.277 88.9093C391.395 89.3573 391.533 89.6773 391.693 89.8693C391.864 90.0613 392.147 90.1573 392.541 90.1573C392.936 90.1573 393.213 90.0613 393.373 89.8693C393.544 89.6773 393.688 89.3573 393.805 88.9093L395.165 83.6453C395.219 83.3999 395.443 83.2773 395.837 83.2773C396.243 83.2773 396.445 83.3733 396.445 83.5653C396.445 83.6186 396.397 83.8159 396.301 84.1573L395.053 89.0853C394.883 89.7573 394.664 90.2639 394.397 90.6053C394.131 90.9466 393.725 91.1599 393.181 91.2453V94.9093ZM403.634 93.0693V87.7253C403.634 86.8933 402.903 86.4773 401.442 86.4773C399.991 86.4773 399.266 86.8933 399.266 87.7253V93.0693C399.266 93.9013 399.991 94.3173 401.442 94.3173C402.903 94.3173 403.634 93.9013 403.634 93.0693ZM404.914 87.8853V92.9093C404.914 93.7946 404.599 94.4399 403.97 94.8453C403.34 95.2399 402.503 95.4373 401.458 95.4373C400.412 95.4373 399.57 95.2399 398.93 94.8453C398.3 94.4399 397.986 93.7946 397.986 92.9093V87.8853C397.986 86.9999 398.3 86.3599 398.93 85.9653C399.559 85.5599 400.396 85.3573 401.442 85.3573C402.487 85.3573 403.324 85.5599 403.954 85.9653C404.594 86.3599 404.914 86.9999 404.914 87.8853ZM415.199 85.8853V92.9093C415.199 93.7946 414.879 94.4399 414.239 94.8453C413.609 95.2399 412.772 95.4373 411.727 95.4373C410.681 95.4373 409.844 95.2399 409.215 94.8453C408.585 94.4399 408.271 93.7946 408.271 92.9093V85.8853C408.271 85.6399 408.484 85.5173 408.911 85.5173C409.337 85.5173 409.551 85.6399 409.551 85.8853V93.0693C409.551 93.9013 410.276 94.3173 411.727 94.3173C413.188 94.3173 413.919 93.9013 413.919 93.0693V85.8853C413.919 85.6399 414.132 85.5173 414.559 85.5173C414.985 85.5173 415.199 85.6399 415.199 85.8853ZM422.98 88.5253V87.7253C422.98 86.8933 422.484 86.4773 421.492 86.4773C420.5 86.4773 420.004 86.8933 420.004 87.7253V95.0693C420.004 95.3146 419.791 95.4373 419.364 95.4373C418.937 95.4373 418.724 95.3146 418.724 95.0693V87.8853C418.724 86.9999 418.975 86.3599 419.476 85.9653C419.988 85.5599 420.66 85.3573 421.492 85.3573C423.337 85.3573 424.26 86.1893 424.26 87.8533V88.5253C424.26 88.7706 424.047 88.8933 423.62 88.8933C423.193 88.8933 422.98 88.7706 422.98 88.5253ZM428.861 94.0773H431.453C431.667 94.0773 431.773 94.2639 431.773 94.6373C431.773 95.0106 431.667 95.1973 431.453 95.1973H428.861C427.944 95.1973 427.293 94.9786 426.909 94.5413C426.525 94.0933 426.333 93.3733 426.333 92.3813V83.6453C426.333 83.3999 426.547 83.2773 426.973 83.2773C427.4 83.2773 427.613 83.3999 427.613 83.6453V92.3813C427.613 92.9999 427.704 93.4373 427.885 93.6933C428.077 93.9493 428.403 94.0773 428.861 94.0773ZM440.541 87.8533V88.3333C440.541 89.2399 440.354 89.8639 439.981 90.2053C439.607 90.5466 438.925 90.7653 437.933 90.8613L434.813 91.1653V93.0693C434.813 93.9013 435.506 94.3173 436.893 94.3173C438.471 94.3173 439.261 93.9546 439.261 93.2293V92.6213C439.261 92.3759 439.474 92.2533 439.901 92.2533C440.327 92.2533 440.541 92.3759 440.541 92.6213V93.0693C440.541 94.6479 439.367 95.4373 437.021 95.4373C435.986 95.4373 435.143 95.2346 434.493 94.8293C433.853 94.4239 433.533 93.7839 433.533 92.9093V87.8853C433.533 86.9999 433.874 86.3599 434.557 85.9653C435.239 85.5599 436.13 85.3573 437.229 85.3573C438.327 85.3573 439.154 85.5493 439.709 85.9333C440.263 86.3173 440.541 86.9573 440.541 87.8533ZM434.813 87.7253V90.0453L437.821 89.7413C438.429 89.6773 438.818 89.5493 438.989 89.3573C439.17 89.1653 439.261 88.8239 439.261 88.3333V87.7253C439.261 86.8933 438.519 86.4773 437.037 86.4773C435.554 86.4773 434.813 86.8933 434.813 87.7253ZM448.808 94.9253C448.456 95.2666 447.858 95.4373 447.016 95.4373C446.173 95.4373 445.576 95.2666 445.224 94.9253C444.872 94.5839 444.632 94.0239 444.504 93.2453L443.32 86.1733C443.288 85.9493 443.272 85.8266 443.272 85.8053C443.272 85.6133 443.474 85.5173 443.88 85.5173C444.285 85.5173 444.509 85.6399 444.552 85.8853L445.752 93.0693C445.826 93.5279 445.944 93.8533 446.104 94.0453C446.274 94.2266 446.578 94.3173 447.016 94.3173C447.453 94.3173 447.752 94.2266 447.912 94.0453C448.082 93.8533 448.205 93.5279 448.28 93.0693L449.48 85.8853C449.522 85.6399 449.746 85.5173 450.152 85.5173C450.557 85.5173 450.76 85.6133 450.76 85.8053C450.76 85.8266 450.744 85.9493 450.712 86.1733L449.528 93.2453C449.4 94.0239 449.16 94.5839 448.808 94.9253ZM460.509 87.8533V88.3333C460.509 89.2399 460.323 89.8639 459.949 90.2053C459.576 90.5466 458.893 90.7653 457.901 90.8613L454.781 91.1653V93.0693C454.781 93.9013 455.475 94.3173 456.861 94.3173C458.44 94.3173 459.229 93.9546 459.229 93.2293V92.6213C459.229 92.3759 459.443 92.2533 459.869 92.2533C460.296 92.2533 460.509 92.3759 460.509 92.6213V93.0693C460.509 94.6479 459.336 95.4373 456.989 95.4373C455.955 95.4373 455.112 95.2346 454.461 94.8293C453.821 94.4239 453.501 93.7839 453.501 92.9093V87.8853C453.501 86.9999 453.843 86.3599 454.525 85.9653C455.208 85.5599 456.099 85.3573 457.197 85.3573C458.296 85.3573 459.123 85.5493 459.677 85.9333C460.232 86.3173 460.509 86.9573 460.509 87.8533ZM454.781 87.7253V90.0453L457.789 89.7413C458.397 89.6773 458.787 89.5493 458.957 89.3573C459.139 89.1653 459.229 88.8239 459.229 88.3333V87.7253C459.229 86.8933 458.488 86.4773 457.005 86.4773C455.523 86.4773 454.781 86.8933 454.781 87.7253ZM465.144 82.7653V93.3253C465.144 93.6666 465.224 93.9866 465.384 94.2853C465.544 94.5733 465.624 94.7226 465.624 94.7333C465.624 94.8613 465.523 94.9999 465.32 95.1493C465.118 95.2879 464.947 95.3573 464.808 95.3573C464.584 95.3573 464.371 95.1653 464.168 94.7813C463.966 94.3866 463.864 93.9546 463.864 93.4853V82.7653C463.864 82.5199 464.078 82.3973 464.504 82.3973C464.931 82.3973 465.144 82.5199 465.144 82.7653Z" fill="url(#paint1_linear_186_3)"/>
</g>
<g filter="url(#filter3_d_186_3)">
<path d="M394.823 56.3477L421.991 40.0946L456.289 58.08L430.377 77.2609L394.823 56.3477Z" fill="#D16E6E" fill-opacity="0.7"/>
<path d="M394.823 53.001L421.991 36.748L456.289 54.7333L430.377 73.9143L394.823 53.001Z" fill="#E0A671" fill-opacity="0.7"/>
<path d="M394.823 48.8184L421.991 32.5653L456.289 50.5507L430.377 69.7316L394.823 48.8184Z" fill="#FCE729" fill-opacity="0.69"/>
<path d="M393.987 44.6328L421.154 28.3798L455.452 46.3652L429.54 65.5461L393.987 44.6328Z" fill="#BBE8B4" fill-opacity="0.69"/>
</g>
</g>
<!--name-->

<text class='textName'  x="140" y="128" fill="grey" font-size="18" font-weight="900">Enter Your Name</text>

<!--name-->
<path d="M139 133.004H304.946V133.688H139V133.004Z" fill="#E2E2E2"/>
<defs>
<filter id="filter0_d_186_3" x="0" y="23.7461" width="445.331" height="265.254" filterUnits="userSpaceOnUse" color-interpolation-filters="sRGB">
<feFlood flood-opacity="0" result="BackgroundImageFix"/>
<feColorMatrix in="SourceAlpha" type="matrix" values="0 0 0 0 0 0 0 0 0 0 0 0 0 0 0 0 0 0 127 0" result="hardAlpha"/>
<feOffset/>
<feGaussianBlur stdDeviation="2"/>
<feComposite in2="hardAlpha" operator="out"/>
<feColorMatrix type="matrix" values="0 0 0 0 0 0 0 0 0 0 0 0 0 0 0 0 0 0 0.42 0"/>
<feBlend mode="normal" in2="BackgroundImageFix" result="effect1_dropShadow_186_3"/>
<feBlend mode="normal" in="SourceGraphic" in2="effect1_dropShadow_186_3" result="shape"/>
</filter>
<filter id="filter1_d_186_3" x="368.07" y="0" width="114.253" height="173.74" filterUnits="userSpaceOnUse" color-interpolation-filters="sRGB">
<feFlood flood-opacity="0" result="BackgroundImageFix"/>
<feColorMatrix in="SourceAlpha" type="matrix" values="0 0 0 0 0 0 0 0 0 0 0 0 0 0 0 0 0 0 127 0" result="hardAlpha"/>
<feOffset/>
<feGaussianBlur stdDeviation="2"/>
<feComposite in2="hardAlpha" operator="out"/>
<feColorMatrix type="matrix" values="0 0 0 0 0 0 0 0 0 0 0 0 0 0 0 0 0 0 0.6 0"/>
<feBlend mode="normal" in2="BackgroundImageFix" result="effect1_dropShadow_186_3"/>
<feBlend mode="normal" in="SourceGraphic" in2="effect1_dropShadow_186_3" result="shape"/>
</filter>
<filter id="filter2_d_186_3" x="388.637" y="82.3975" width="77.2871" height="13.04" filterUnits="userSpaceOnUse" color-interpolation-filters="sRGB">
<feFlood flood-opacity="0" result="BackgroundImageFix"/>
<feColorMatrix in="SourceAlpha" type="matrix" values="0 0 0 0 0 0 0 0 0 0 0 0 0 0 0 0 0 0 127 0" result="hardAlpha"/>
<feOffset dx="0.3"/>
<feComposite in2="hardAlpha" operator="out"/>
<feColorMatrix type="matrix" values="0 0 0 0 0.575604 0 0 0 0 0.583333 0 0 0 0 0.196875 0 0 0 1 0"/>
<feBlend mode="normal" in2="BackgroundImageFix" result="effect1_dropShadow_186_3"/>
<feBlend mode="normal" in="SourceGraphic" in2="effect1_dropShadow_186_3" result="shape"/>
</filter>
<filter id="filter3_d_186_3" x="389.987" y="25.3799" width="70.3022" height="56.8809" filterUnits="userSpaceOnUse" color-interpolation-filters="sRGB">
<feFlood flood-opacity="0" result="BackgroundImageFix"/>
<feColorMatrix in="SourceAlpha" type="matrix" values="0 0 0 0 0 0 0 0 0 0 0 0 0 0 0 0 0 0 127 0" result="hardAlpha"/>
<feOffset dy="1"/>
<feGaussianBlur stdDeviation="2"/>
<feComposite in2="hardAlpha" operator="out"/>
<feColorMatrix type="matrix" values="0 0 0 0 0.116667 0 0 0 0 0.114722 0 0 0 0 0.114722 0 0 0 0.56 0"/>
<feBlend mode="normal" in2="BackgroundImageFix" result="effect1_dropShadow_186_3"/>
<feBlend mode="normal" in="SourceGraphic" in2="effect1_dropShadow_186_3" result="shape"/>
</filter>
<linearGradient id="paint0_linear_186_3" x1="222.665" y1="27.7461" x2="222.665" y2="285" gradientUnits="userSpaceOnUse">
<stop offset="0.21875" stop-color="#95C9DF"/>
<stop offset="1" stop-color="#A6D0EE" stop-opacity="0.54"/>
</linearGradient>
<linearGradient id="paint1_linear_186_3" x1="433.415" y1="79.1973" x2="433.415" y2="98.986" gradientUnits="userSpaceOnUse">
<stop stop-color="#FEFEFE"/>
<stop offset="0.0642363" stop-color="#FBFFF0"/>
<stop offset="0.276042" stop-color="#FBFBF2"/>
<stop offset="0.588542" stop-color="#FFFAF4"/>
<stop offset="0.652778" stop-color="#F6F7ED"/>
</linearGradient>
</defs>
</svg>
