<svg width="287" height="30" viewBox="0 0 287 30" fill="none" xmlns="http://www.w3.org/2000/svg">
<path d="M21.96 21.92V29H0.76V1.16H2.24V21.92H21.96ZM48.4494 1.16V2.64H40.1294V27.52H48.4494V29H30.4094V27.52H38.6894V2.64H30.4094V1.16H48.4494ZM58.1388 29V1.16H59.6988L79.1388 20.04V1.16H80.6188V29H79.1388V22.12L59.6188 3.08V29H58.1388ZM89.0281 1.16H108.628V2.64H90.5081V13.92H106.268V15.4H90.5081V27.52H108.628V29H89.0281V1.16ZM139.718 18.48C139.744 21.9733 138.744 24.7067 136.718 26.68C134.691 28.6267 131.904 29.6 128.358 29.6C126.251 29.6 124.304 29.12 122.518 28.16C120.758 27.2 119.358 25.84 118.318 24.08C117.278 22.32 116.758 20.2933 116.758 18V12.16C116.758 9.89333 117.251 7.88 118.238 6.12C119.251 4.36 120.624 3 122.358 2.04C124.118 1.05333 126.078 0.559999 128.238 0.559999C131.784 0.559999 134.558 1.53333 136.558 3.48C138.584 5.4 139.611 8.12 139.638 11.64H132.438C132.411 10.28 132.038 9.22667 131.318 8.48C130.624 7.73333 129.598 7.36 128.238 7.36C127.011 7.36 125.998 7.74667 125.197 8.52C124.397 9.29333 123.997 10.3867 123.997 11.8V18.32C123.997 19.7333 124.411 20.84 125.238 21.64C126.091 22.4133 127.131 22.8 128.358 22.8C131.158 22.8 132.558 21.36 132.558 18.48H139.718ZM157.847 0.559999C159.927 0.559999 161.847 1.08 163.607 2.12C165.367 3.13333 166.754 4.52 167.767 6.28C168.807 8.04 169.327 9.96 169.327 12.04V18.12C169.327 20.2 168.807 22.12 167.767 23.88C166.754 25.64 165.367 27.04 163.607 28.08C161.847 29.0933 159.927 29.6 157.847 29.6C155.767 29.6 153.847 29.0933 152.087 28.08C150.327 27.04 148.927 25.64 147.887 23.88C146.874 22.12 146.367 20.2 146.367 18.12V12.04C146.367 9.96 146.874 8.04 147.887 6.28C148.927 4.52 150.327 3.13333 152.087 2.12C153.847 1.08 155.767 0.559999 157.847 0.559999ZM147.847 18.12C147.847 19.9333 148.287 21.6133 149.167 23.16C150.074 24.68 151.287 25.8933 152.807 26.8C154.354 27.68 156.034 28.12 157.847 28.12C159.66 28.12 161.327 27.68 162.847 26.8C164.394 25.8933 165.607 24.68 166.487 23.16C167.394 21.6133 167.847 19.9333 167.847 18.12V12.04C167.847 10.2267 167.394 8.56 166.487 7.04C165.607 5.49333 164.394 4.28 162.847 3.4C161.327 2.49333 159.66 2.04 157.847 2.04C156.034 2.04 154.354 2.49333 152.807 3.4C151.287 4.28 150.074 5.49333 149.167 7.04C148.287 8.56 147.847 10.2267 147.847 12.04V18.12ZM176.216 1.16H177.696V18.36C177.696 20.12 178.136 21.7467 179.016 23.24C179.896 24.7333 181.083 25.92 182.576 26.8C184.07 27.68 185.696 28.12 187.456 28.12C189.216 28.12 190.843 27.68 192.336 26.8C193.83 25.92 195.016 24.7333 195.896 23.24C196.776 21.7467 197.216 20.12 197.216 18.36V1.16H198.696V18.36C198.696 20.3867 198.19 22.2667 197.176 24C196.163 25.7067 194.79 27.0667 193.056 28.08C191.35 29.0933 189.483 29.6 187.456 29.6C185.43 29.6 183.55 29.0933 181.816 28.08C180.11 27.0667 178.75 25.7067 177.736 24C176.723 22.2667 176.216 20.3867 176.216 18.36V1.16ZM223.106 2.08C224.706 2.82667 225.959 3.93333 226.866 5.4C227.799 6.86667 228.266 8.49333 228.266 10.28C228.266 12.36 227.626 14.2267 226.346 15.88C225.092 17.5067 223.479 18.5867 221.506 19.12L228.586 29H226.826L219.986 19.4L218.706 19.44H208.666V29H207.186V1.16H217.786C218.959 1.16 219.959 1.24 220.786 1.4C221.639 1.53333 222.412 1.76 223.106 2.08ZM219.106 17.96C220.492 17.96 221.772 17.6133 222.946 16.92C224.119 16.2267 225.052 15.2933 225.746 14.12C226.439 12.9467 226.786 11.6667 226.786 10.28C226.786 8.73333 226.372 7.33333 225.546 6.08C224.746 4.82667 223.626 3.89333 222.186 3.28C221.146 2.85333 219.679 2.64 217.786 2.64H208.666V17.96H219.106ZM247.275 15.68C245.008 15.2267 243.155 14.7333 241.715 14.2C240.302 13.64 239.182 12.8933 238.355 11.96C237.555 11 237.155 9.77333 237.155 8.28C237.155 6.73333 237.555 5.37333 238.355 4.2C239.182 3.02667 240.328 2.12 241.795 1.48C243.288 0.839999 245.008 0.52 246.955 0.52C248.822 0.52 250.528 0.919999 252.075 1.72C253.648 2.49333 254.888 3.58666 255.795 5C256.702 6.41333 257.155 8.02666 257.155 9.84H255.675C255.675 8.26666 255.288 6.88 254.515 5.68C253.742 4.48 252.688 3.56 251.355 2.92C250.022 2.25333 248.542 1.92 246.915 1.92C245.475 1.92 244.128 2.14667 242.875 2.6C241.622 3.05333 240.595 3.74667 239.795 4.68C239.022 5.61333 238.635 6.78667 238.635 8.2C238.635 9.48 239.008 10.5067 239.755 11.28C240.502 12.0267 241.475 12.6 242.675 13C243.875 13.4 245.555 13.8267 247.715 14.28C249.902 14.7333 251.595 15.1733 252.795 15.6C254.022 16 255.048 16.68 255.875 17.64C256.728 18.6 257.155 19.9467 257.155 21.68C257.155 23.4133 256.688 24.88 255.755 26.08C254.848 27.2533 253.635 28.1333 252.115 28.72C250.595 29.3067 248.942 29.6 247.155 29.6C244.942 29.6 242.995 29.1867 241.315 28.36C239.635 27.5333 238.342 26.3733 237.435 24.88C236.555 23.36 236.115 21.6267 236.115 19.68H237.595C237.595 21.3867 237.968 22.88 238.715 24.16C239.488 25.44 240.595 26.44 242.035 27.16C243.475 27.8533 245.182 28.2 247.155 28.2C249.608 28.2 251.635 27.6133 253.235 26.44C254.862 25.2667 255.675 23.6667 255.675 21.64C255.675 20.2533 255.328 19.1867 254.635 18.44C253.942 17.6933 253.062 17.16 251.995 16.84C250.955 16.4933 249.382 16.1067 247.275 15.68ZM266.684 1.16H286.284V2.64H268.164V13.92H283.924V15.4H268.164V27.52H286.284V29H266.684V1.16Z" fill="url(#paint0_radial_129_38)"/>
<defs>
<radialGradient id="paint0_radial_129_38" cx="0" cy="0" r="1" gradientUnits="userSpaceOnUse" gradientTransform="translate(143.5 13) rotate(90) scale(20 148.5)">
<stop offset="0.432292" stop-color="#EF8383"/>
<stop offset="1" stop-color="#FCFCFC" stop-opacity="0.15"/>
</radialGradient>
</defs>
</svg>
