<svg width="315" height="119" viewBox="0 0 315 119" fill="none" xmlns="http://www.w3.org/2000/svg">
<path d="M128.2 74.279C128.2 74.8924 127.667 75.199 126.6 75.199C125.533 75.199 125 74.8924 125 74.279V65.119C123.64 64.9057 122.627 64.3724 121.96 63.519C121.293 62.6657 120.747 61.399 120.32 59.719L117.2 47.399C116.96 46.5457 116.84 46.0524 116.84 45.919C116.84 45.439 117.333 45.199 118.32 45.199C119.333 45.199 119.907 45.5057 120.04 46.119L123.44 59.279C123.733 60.399 124.08 61.199 124.48 61.679C124.907 62.159 125.613 62.399 126.6 62.399C127.587 62.399 128.28 62.159 128.68 61.679C129.107 61.199 129.467 60.399 129.76 59.279L133.16 46.119C133.293 45.5057 133.853 45.199 134.84 45.199C135.853 45.199 136.36 45.439 136.36 45.919C136.36 46.0524 136.24 46.5457 136 47.399L132.88 59.719C132.453 61.399 131.907 62.6657 131.24 63.519C130.573 64.3724 129.56 64.9057 128.2 65.119V74.279ZM154.331 69.679V56.319C154.331 54.239 152.504 53.199 148.851 53.199C145.224 53.199 143.411 54.239 143.411 56.319V69.679C143.411 71.759 145.224 72.799 148.851 72.799C152.504 72.799 154.331 71.759 154.331 69.679ZM157.531 56.719V69.279C157.531 71.4924 156.744 73.1057 155.171 74.119C153.598 75.1057 151.504 75.599 148.891 75.599C146.278 75.599 144.171 75.1057 142.571 74.119C140.998 73.1057 140.211 71.4924 140.211 69.279V56.719C140.211 54.5057 140.998 52.9057 142.571 51.919C144.144 50.9057 146.238 50.399 148.851 50.399C151.464 50.399 153.558 50.9057 155.131 51.919C156.731 52.9057 157.531 54.5057 157.531 56.719ZM183.243 51.719V69.279C183.243 71.4924 182.443 73.1057 180.843 74.119C179.27 75.1057 177.177 75.599 174.563 75.599C171.95 75.599 169.857 75.1057 168.283 74.119C166.71 73.1057 165.923 71.4924 165.923 69.279V51.719C165.923 51.1057 166.457 50.799 167.523 50.799C168.59 50.799 169.123 51.1057 169.123 51.719V69.679C169.123 71.759 170.937 72.799 174.563 72.799C178.217 72.799 180.043 71.759 180.043 69.679V51.719C180.043 51.1057 180.577 50.799 181.643 50.799C182.71 50.799 183.243 51.1057 183.243 51.719ZM202.696 58.319V56.319C202.696 54.239 201.456 53.199 198.976 53.199C196.496 53.199 195.256 54.239 195.256 56.319V74.679C195.256 75.2924 194.723 75.599 193.656 75.599C192.59 75.599 192.056 75.2924 192.056 74.679V56.719C192.056 54.5057 192.683 52.9057 193.936 51.919C195.216 50.9057 196.896 50.399 198.976 50.399C203.59 50.399 205.896 52.479 205.896 56.639V58.319C205.896 58.9324 205.363 59.239 204.296 59.239C203.23 59.239 202.696 58.9324 202.696 58.319ZM217.4 72.199H223.88C224.413 72.199 224.68 72.6657 224.68 73.599C224.68 74.5324 224.413 74.999 223.88 74.999H217.4C215.106 74.999 213.48 74.4524 212.52 73.359C211.56 72.239 211.08 70.439 211.08 67.959V46.119C211.08 45.5057 211.613 45.199 212.68 45.199C213.746 45.199 214.28 45.5057 214.28 46.119V67.959C214.28 69.5057 214.506 70.599 214.96 71.239C215.44 71.879 216.253 72.199 217.4 72.199ZM246.598 56.639V57.839C246.598 60.1057 246.131 61.6657 245.198 62.519C244.265 63.3724 242.558 63.919 240.078 64.159L232.278 64.919V69.679C232.278 71.759 234.011 72.799 237.478 72.799C241.425 72.799 243.398 71.8924 243.398 70.079V68.559C243.398 67.9457 243.931 67.639 244.998 67.639C246.065 67.639 246.598 67.9457 246.598 68.559V69.679C246.598 73.6257 243.665 75.599 237.798 75.599C235.211 75.599 233.105 75.0924 231.478 74.079C229.878 73.0657 229.078 71.4657 229.078 69.279V56.719C229.078 54.5057 229.931 52.9057 231.638 51.919C233.345 50.9057 235.571 50.399 238.318 50.399C241.065 50.399 243.131 50.879 244.518 51.839C245.905 52.799 246.598 54.399 246.598 56.639ZM232.278 56.319V62.119L239.798 61.359C241.318 61.199 242.291 60.879 242.718 60.399C243.171 59.919 243.398 59.0657 243.398 57.839V56.319C243.398 54.239 241.545 53.199 237.838 53.199C234.131 53.199 232.278 54.239 232.278 56.319ZM267.266 74.319C266.386 75.1724 264.893 75.599 262.786 75.599C260.679 75.599 259.186 75.1724 258.306 74.319C257.426 73.4657 256.826 72.0657 256.506 70.119L253.546 52.439C253.466 51.879 253.426 51.5724 253.426 51.519C253.426 51.039 253.933 50.799 254.946 50.799C255.959 50.799 256.519 51.1057 256.626 51.719L259.626 69.679C259.813 70.8257 260.106 71.639 260.506 72.119C260.933 72.5724 261.693 72.799 262.786 72.799C263.879 72.799 264.626 72.5724 265.026 72.119C265.453 71.639 265.759 70.8257 265.946 69.679L268.946 51.719C269.053 51.1057 269.613 50.799 270.626 50.799C271.639 50.799 272.146 51.039 272.146 51.519C272.146 51.5724 272.106 51.879 272.026 52.439L269.066 70.119C268.746 72.0657 268.146 73.4657 267.266 74.319ZM296.52 56.639V57.839C296.52 60.1057 296.053 61.6657 295.12 62.519C294.187 63.3724 292.48 63.919 290 64.159L282.2 64.919V69.679C282.2 71.759 283.933 72.799 287.4 72.799C291.347 72.799 293.32 71.8924 293.32 70.079V68.559C293.32 67.9457 293.853 67.639 294.92 67.639C295.987 67.639 296.52 67.9457 296.52 68.559V69.679C296.52 73.6257 293.587 75.599 287.72 75.599C285.133 75.599 283.027 75.0924 281.4 74.079C279.8 73.0657 279 71.4657 279 69.279V56.719C279 54.5057 279.853 52.9057 281.56 51.919C283.267 50.9057 285.493 50.399 288.24 50.399C290.987 50.399 293.053 50.879 294.44 51.839C295.827 52.799 296.52 54.399 296.52 56.639ZM282.2 56.319V62.119L289.72 61.359C291.24 61.199 292.213 60.879 292.64 60.399C293.093 59.919 293.32 59.0657 293.32 57.839V56.319C293.32 54.239 291.467 53.199 287.76 53.199C284.053 53.199 282.2 54.239 282.2 56.319ZM308.108 43.919V70.319C308.108 71.1724 308.308 71.9724 308.708 72.719C309.108 73.439 309.308 73.8124 309.308 73.839C309.308 74.159 309.054 74.5057 308.548 74.879C308.041 75.2257 307.614 75.399 307.268 75.399C306.708 75.399 306.174 74.919 305.668 73.959C305.161 72.9724 304.908 71.8924 304.908 70.719V43.919C304.908 43.3057 305.441 42.999 306.508 42.999C307.574 42.999 308.108 43.3057 308.108 43.919Z" fill="url(#paint0_linear_157_24)"/>
<path d="M1.35986 67.6123L45.5346 41.1845L101.304 70.4291L59.17 101.618L1.35986 67.6123Z" fill="#D16E6E" fill-opacity="0.7"/>
<path d="M1.35986 62.1709L45.5346 35.7431L101.304 64.9877L59.17 96.1764L1.35986 62.1709Z" fill="#E0A671" fill-opacity="0.7"/>
<path d="M1.35986 55.3701L45.5346 28.9423L101.304 58.187L59.17 89.3756L1.35986 55.3701Z" fill="#FCE729" fill-opacity="0.69"/>
<path d="M0 48.5703L44.1748 22.1425L99.9445 51.3872L57.8101 82.5758L0 48.5703Z" fill="#BBE8B4" fill-opacity="0.69"/>
<defs>
<linearGradient id="paint0_linear_157_24" x1="215" y1="34.999" x2="215" y2="90.999" gradientUnits="userSpaceOnUse">
<stop stop-color="#C1D589"/>
<stop offset="0.276042" stop-color="#DEDA7D"/>
<stop offset="0.588542" stop-color="#D7964A"/>
<stop offset="0.90625" stop-color="#D11E1E"/>
</linearGradient>
</defs>
</svg>
