<svg width="688" height="634" viewBox="0 0 688 614" fill="none" xmlns="http://www.w3.org/2000/svg">
<rect x="98.0112" y="251.755" width="503.508" height="361.296" fill="url(#paint0_diamond_193_164)"/>
<g filter="url(#filter0_d_193_164)">
<path d="M173.907 355.965L141.946 346.309L169.127 337.292L200.186 346.383L173.907 355.965Z" stroke="url(#paint1_linear_193_164)" shape-rendering="crispEdges"/>
</g>
<path d="M197.944 340.913L216.862 334.391L238.302 340.913L220.015 347.843L197.944 340.913Z" fill="url(#paint2_radial_193_164)"/>
<path d="M244.067 331.305L262.984 324.782L284.424 331.305L266.137 338.235L244.067 331.305Z" fill="url(#paint3_radial_193_164)"/>
<path d="M276.738 329.383L295.655 322.86L317.095 329.383L298.808 336.313L276.738 329.383Z" fill="url(#paint4_radial_193_164)"/>
<path d="M295.956 321.696L314.873 315.174L336.313 321.696L318.026 328.626L295.956 321.696Z" fill="url(#paint5_radial_193_164)"/>
<path d="M326.704 321.696L345.621 315.174L367.061 321.696L348.774 328.626L326.704 321.696Z" fill="url(#paint6_radial_193_164)"/>
<path d="M345.922 312.087L364.839 305.564L386.279 312.087L367.992 319.017L345.922 312.087Z" fill="url(#paint7_radial_193_164)"/>
<path d="M374.749 310.164L393.667 303.642L415.107 310.164L396.82 317.094L374.749 310.164Z" fill="url(#paint8_radial_193_164)"/>
<path d="M392.044 300.557L410.962 294.034L432.402 300.557L414.115 307.487L392.044 300.557Z" fill="url(#paint9_radial_193_164)"/>
<path d="M420.872 296.713L439.789 290.19L461.229 296.713L442.942 303.643L420.872 296.713Z" fill="url(#paint10_radial_193_164)"/>
<path d="M226.771 340.913L245.689 334.391L267.129 340.913L248.842 347.843L226.771 340.913Z" fill="url(#paint11_radial_193_164)"/>
<g filter="url(#filter1_d_193_164)">
<line x1="140.791" y1="192.133" x2="140.791" y2="346.332" stroke="url(#paint12_linear_193_164)"/>
</g>
<g filter="url(#filter2_d_193_164)">
<line x1="200.366" y1="192.133" x2="200.366" y2="346.332" stroke="url(#paint13_linear_193_164)"/>
</g>
<g filter="url(#filter3_d_193_164)">
<line x1="168.657" y1="183.765" x2="168.657" y2="337.963" stroke="url(#paint14_linear_193_164)"/>
</g>
<g filter="url(#filter4_d_193_164)">
<line x1="173.461" y1="201.696" x2="173.461" y2="355.895" stroke="url(#paint15_linear_193_164)"/>
</g>
<g filter="url(#filter5_d_193_164)">
<path d="M140.291 192.133L169.117 182.57L201.788 192.133L173.922 202.293L140.291 192.133Z" fill="url(#paint16_radial_193_164)"/>
<path d="M173.907 201.767L141.946 192.111L169.127 183.094L200.186 192.185L173.907 201.767Z" stroke="url(#paint17_linear_193_164)"/>
</g>
<g filter="url(#filter6_f_193_164)">
<path d="M468.908 523.164L438.446 514.461L465.083 505.951L495.993 514.521L468.908 523.164Z" stroke="url(#paint18_linear_193_164)"/>
</g>
<g filter="url(#filter7_f_193_164)">
<line x1="436.746" y1="283.46" x2="436.746" y2="514.491" stroke="url(#paint19_linear_193_164)"/>
</g>
<g filter="url(#filter8_f_193_164)">
<line x1="496.321" y1="283.46" x2="496.321" y2="514.491" stroke="url(#paint20_linear_193_164)"/>
</g>
<g filter="url(#filter9_f_193_164)">
<line x1="464.611" y1="275.774" x2="464.611" y2="506.12" stroke="url(#paint21_linear_193_164)"/>
</g>
<g filter="url(#filter10_f_193_164)">
<line x1="468.456" y1="293.072" x2="468.456" y2="523.687" stroke="url(#paint22_linear_193_164)"/>
</g>
<g filter="url(#filter11_f_193_164)">
<path d="M468.906 293.504L437.926 283.481L465.081 275.335L496.081 283.541L468.906 293.504Z" stroke="url(#paint23_linear_193_164)"/>
</g>
<g filter="url(#filter12_df_193_164)">
<path d="M173.907 515.473L141.946 505.817L169.127 496.8L200.186 505.891L173.907 515.473Z" stroke="url(#paint24_linear_193_164)" shape-rendering="crispEdges"/>
</g>
<g filter="url(#filter13_df_193_164)">
<line x1="140.791" y1="351.641" x2="140.791" y2="505.839" stroke="url(#paint25_linear_193_164)"/>
</g>
<g filter="url(#filter14_df_193_164)">
<line x1="200.366" y1="351.641" x2="200.366" y2="505.839" stroke="url(#paint26_linear_193_164)"/>
</g>
<g filter="url(#filter15_df_193_164)">
<line x1="168.657" y1="343.273" x2="168.657" y2="497.472" stroke="url(#paint27_linear_193_164)"/>
</g>
<g filter="url(#filter16_df_193_164)">
<line x1="173.461" y1="361.204" x2="173.461" y2="515.403" stroke="url(#paint28_linear_193_164)"/>
</g>
<g filter="url(#filter17_df_193_164)">
<path d="M173.907 361.274L141.946 351.619L169.127 342.602L200.186 351.693L173.907 361.274Z" stroke="url(#paint29_linear_193_164)" shape-rendering="crispEdges"/>
</g>
<!--logo-->
<path class='textLogo' d="M219.8 248.92C219.8 249.84 219 250.3 217.4 250.3C215.8 250.3 215 249.84 215 248.92V235.18C212.96 234.86 211.44 234.06 210.44 232.78C209.44 231.5 208.62 229.6 207.98 227.08L203.3 208.6C202.94 207.32 202.76 206.58 202.76 206.38C202.76 205.66 203.5 205.3 204.98 205.3C206.5 205.3 207.36 205.76 207.56 206.68L212.66 226.42C213.1 228.1 213.62 229.3 214.22 230.02C214.86 230.74 215.92 231.1 217.4 231.1C218.88 231.1 219.92 230.74 220.52 230.02C221.16 229.3 221.7 228.1 222.14 226.42L227.24 206.68C227.44 205.76 228.28 205.3 229.76 205.3C231.28 205.3 232.04 205.66 232.04 206.38C232.04 206.58 231.86 207.32 231.5 208.6L226.82 227.08C226.18 229.6 225.36 231.5 224.36 232.78C223.36 234.06 221.84 234.86 219.8 235.18V248.92ZM258.996 242.02V221.98C258.996 218.86 256.256 217.3 250.776 217.3C245.336 217.3 242.616 218.86 242.616 221.98V242.02C242.616 245.14 245.336 246.7 250.776 246.7C256.256 246.7 258.996 245.14 258.996 242.02ZM263.796 222.58V241.42C263.796 244.74 262.616 247.16 260.256 248.68C257.896 250.16 254.756 250.9 250.836 250.9C246.916 250.9 243.756 250.16 241.356 248.68C238.996 247.16 237.816 244.74 237.816 241.42V222.58C237.816 219.26 238.996 216.86 241.356 215.38C243.716 213.86 246.856 213.1 250.776 213.1C254.696 213.1 257.836 213.86 260.196 215.38C262.596 216.86 263.796 219.26 263.796 222.58ZM302.365 215.08V241.42C302.365 244.74 301.165 247.16 298.765 248.68C296.405 250.16 293.265 250.9 289.345 250.9C285.425 250.9 282.285 250.16 279.925 248.68C277.565 247.16 276.385 244.74 276.385 241.42V215.08C276.385 214.16 277.185 213.7 278.785 213.7C280.385 213.7 281.185 214.16 281.185 215.08V242.02C281.185 245.14 283.905 246.7 289.345 246.7C294.825 246.7 297.565 245.14 297.565 242.02V215.08C297.565 214.16 298.365 213.7 299.965 213.7C301.565 213.7 302.365 214.16 302.365 215.08ZM331.544 224.98V221.98C331.544 218.86 329.684 217.3 325.964 217.3C322.244 217.3 320.384 218.86 320.384 221.98V249.52C320.384 250.44 319.584 250.9 317.984 250.9C316.384 250.9 315.584 250.44 315.584 249.52V222.58C315.584 219.26 316.524 216.86 318.404 215.38C320.324 213.86 322.844 213.1 325.964 213.1C332.884 213.1 336.344 216.22 336.344 222.46V224.98C336.344 225.9 335.544 226.36 333.944 226.36C332.344 226.36 331.544 225.9 331.544 224.98ZM353.6 245.8H363.32C364.12 245.8 364.52 246.5 364.52 247.9C364.52 249.3 364.12 250 363.32 250H353.6C350.16 250 347.72 249.18 346.28 247.54C344.84 245.86 344.12 243.16 344.12 239.44V206.68C344.12 205.76 344.92 205.3 346.52 205.3C348.12 205.3 348.92 205.76 348.92 206.68V239.44C348.92 241.76 349.26 243.4 349.94 244.36C350.66 245.32 351.88 245.8 353.6 245.8ZM397.397 222.46V224.26C397.397 227.66 396.697 230 395.297 231.28C393.897 232.56 391.337 233.38 387.617 233.74L375.917 234.88V242.02C375.917 245.14 378.517 246.7 383.717 246.7C389.637 246.7 392.597 245.34 392.597 242.62V240.34C392.597 239.42 393.397 238.96 394.997 238.96C396.597 238.96 397.397 239.42 397.397 240.34V242.02C397.397 247.94 392.997 250.9 384.197 250.9C380.317 250.9 377.157 250.14 374.717 248.62C372.317 247.1 371.117 244.7 371.117 241.42V222.58C371.117 219.26 372.397 216.86 374.957 215.38C377.517 213.86 380.857 213.1 384.977 213.1C389.097 213.1 392.197 213.82 394.277 215.26C396.357 216.7 397.397 219.1 397.397 222.46ZM375.917 221.98V230.68L387.197 229.54C389.477 229.3 390.937 228.82 391.577 228.1C392.257 227.38 392.597 226.1 392.597 224.26V221.98C392.597 218.86 389.817 217.3 384.257 217.3C378.697 217.3 375.917 218.86 375.917 221.98ZM428.399 248.98C427.079 250.26 424.839 250.9 421.679 250.9C418.519 250.9 416.279 250.26 414.959 248.98C413.639 247.7 412.739 245.6 412.259 242.68L407.819 216.16C407.699 215.32 407.639 214.86 407.639 214.78C407.639 214.06 408.399 213.7 409.919 213.7C411.439 213.7 412.279 214.16 412.439 215.08L416.939 242.02C417.219 243.74 417.659 244.96 418.259 245.68C418.899 246.36 420.039 246.7 421.679 246.7C423.319 246.7 424.439 246.36 425.039 245.68C425.679 244.96 426.139 243.74 426.419 242.02L430.919 215.08C431.079 214.16 431.919 213.7 433.439 213.7C434.959 213.7 435.719 214.06 435.719 214.78C435.719 214.86 435.659 215.32 435.539 216.16L431.099 242.68C430.619 245.6 429.719 247.7 428.399 248.98ZM472.28 222.46V224.26C472.28 227.66 471.58 230 470.18 231.28C468.78 232.56 466.22 233.38 462.5 233.74L450.8 234.88V242.02C450.8 245.14 453.4 246.7 458.6 246.7C464.52 246.7 467.48 245.34 467.48 242.62V240.34C467.48 239.42 468.28 238.96 469.88 238.96C471.48 238.96 472.28 239.42 472.28 240.34V242.02C472.28 247.94 467.88 250.9 459.08 250.9C455.2 250.9 452.04 250.14 449.6 248.62C447.2 247.1 446 244.7 446 241.42V222.58C446 219.26 447.28 216.86 449.84 215.38C452.4 213.86 455.74 213.1 459.86 213.1C463.98 213.1 467.08 213.82 469.16 215.26C471.24 216.7 472.28 219.1 472.28 222.46ZM450.8 221.98V230.68L462.08 229.54C464.36 229.3 465.82 228.82 466.46 228.1C467.14 227.38 467.48 226.1 467.48 224.26V221.98C467.48 218.86 464.7 217.3 459.14 217.3C453.58 217.3 450.8 218.86 450.8 221.98ZM489.662 203.38V242.98C489.662 244.26 489.962 245.46 490.562 246.58C491.162 247.66 491.462 248.22 491.462 248.26C491.462 248.74 491.082 249.26 490.322 249.82C489.562 250.34 488.922 250.6 488.402 250.6C487.562 250.6 486.762 249.88 486.002 248.44C485.242 246.96 484.862 245.34 484.862 243.58V203.38C484.862 202.46 485.662 202 487.262 202C488.862 202 489.662 202.46 489.662 203.38Z" fill="url(#paint30_linear_193_164)"/>
<!--logo-->
<g filter="url(#filter18_d_193_164)">
<path d="M468.908 288.706L438.446 280.003L465.083 271.493L495.993 280.063L468.908 288.706Z" stroke="url(#paint31_linear_193_164)" shape-rendering="crispEdges"/>
</g>
<g filter="url(#filter19_d_193_164)">
<line x1="436.746" y1="49.002" x2="436.746" y2="280.033" stroke="url(#paint32_linear_193_164)"/>
</g>
<g filter="url(#filter20_d_193_164)">
<line x1="496.321" y1="49.002" x2="496.321" y2="280.033" stroke="url(#paint33_linear_193_164)"/>
</g>
<g filter="url(#filter21_d_193_164)">
<line x1="464.611" y1="41.3164" x2="464.611" y2="271.662" stroke="url(#paint34_linear_193_164)"/>
</g>
<g filter="url(#filter22_d_193_164)">
<line x1="468.456" y1="58.6152" x2="468.456" y2="289.23" stroke="url(#paint35_linear_193_164)"/>
</g>
<g filter="url(#filter23_d_193_164)">
<path d="M436.246 49.0055L465.073 40.3574L497.743 49.0055L468.916 59.5753L436.246 49.0055Z" fill="url(#paint36_radial_193_164)"/>
<path d="M468.906 59.0465L437.926 49.0235L465.081 40.8769L496.081 49.0826L468.906 59.0465Z" stroke="url(#paint37_linear_193_164)"/>
</g>
<line y1="251.255" x2="688" y2="251.255" stroke="url(#paint38_linear_193_164)"/>
<!--certificate-->
<g class='certrifSVG'>
<path d="M466.753 43.8777L461.593 47.137V31.6973H472.448V47.137L467.287 43.8777L467.02 43.709L466.753 43.8777Z" fill="#81A2C9" stroke="#F3F096"/>
<path d="M452.12 9.18009L467.02 0.57735L481.921 9.18008L481.921 11.5432L481.921 26.3856L467.02 34.9883L452.12 26.3856V9.18009Z" fill="#81A2C9" stroke="#7C868E"/>
<line x1="452.234" y1="9.98438" x2="452.234" y2="25.5833" stroke="#F3F096"/>
<path d="M482.022 9.75098V25.5841" stroke="#F3F096"/>
<path d="M466.233 0.89611L452.669 8.73487" stroke="#F3F096"/>
<path d="M467.956 0.936024L481.371 8.7354" stroke="#F3F096"/>
<path d="M466.107 34.6713L452.543 26.8325" stroke="#F3F096"/>
<path d="M467.956 34.6309L481.37 26.8325" stroke="#F3F096"/>
<g filter="url(#filter24_d_193_164)">
<path d="M456.65 25.91C456.65 25.9867 456.583 26.025 456.45 26.025C456.317 26.025 456.25 25.9867 456.25 25.91V24.765C456.08 24.7383 455.953 24.6717 455.87 24.565C455.787 24.4583 455.718 24.3 455.665 24.09L455.275 22.55C455.245 22.4433 455.23 22.3817 455.23 22.365C455.23 22.305 455.292 22.275 455.415 22.275C455.542 22.275 455.613 22.3133 455.63 22.39L456.055 24.035C456.092 24.175 456.135 24.275 456.185 24.335C456.238 24.395 456.327 24.425 456.45 24.425C456.573 24.425 456.66 24.395 456.71 24.335C456.763 24.275 456.808 24.175 456.845 24.035L457.27 22.39C457.287 22.3133 457.357 22.275 457.48 22.275C457.607 22.275 457.67 22.305 457.67 22.365C457.67 22.3817 457.655 22.4433 457.625 22.55L457.235 24.09C457.182 24.3 457.113 24.4583 457.03 24.565C456.947 24.6717 456.82 24.7383 456.65 24.765V25.91ZM459.916 25.335V23.665C459.916 23.405 459.688 23.275 459.231 23.275C458.778 23.275 458.551 23.405 458.551 23.665V25.335C458.551 25.595 458.778 25.725 459.231 25.725C459.688 25.725 459.916 25.595 459.916 25.335ZM460.316 23.715V25.285C460.316 25.5617 460.218 25.7633 460.021 25.89C459.825 26.0133 459.563 26.075 459.236 26.075C458.91 26.075 458.646 26.0133 458.446 25.89C458.25 25.7633 458.151 25.5617 458.151 25.285V23.715C458.151 23.4383 458.25 23.2383 458.446 23.115C458.643 22.9883 458.905 22.925 459.231 22.925C459.558 22.925 459.82 22.9883 460.016 23.115C460.216 23.2383 460.316 23.4383 460.316 23.715ZM463.53 23.09V25.285C463.53 25.5617 463.43 25.7633 463.23 25.89C463.034 26.0133 462.772 26.075 462.445 26.075C462.119 26.075 461.857 26.0133 461.66 25.89C461.464 25.7633 461.365 25.5617 461.365 25.285V23.09C461.365 23.0133 461.432 22.975 461.565 22.975C461.699 22.975 461.765 23.0133 461.765 23.09V25.335C461.765 25.595 461.992 25.725 462.445 25.725C462.902 25.725 463.13 25.595 463.13 25.335V23.09C463.13 23.0133 463.197 22.975 463.33 22.975C463.464 22.975 463.53 23.0133 463.53 23.09ZM465.962 23.915V23.665C465.962 23.405 465.807 23.275 465.497 23.275C465.187 23.275 465.032 23.405 465.032 23.665V25.96C465.032 26.0367 464.965 26.075 464.832 26.075C464.699 26.075 464.632 26.0367 464.632 25.96V23.715C464.632 23.4383 464.71 23.2383 464.867 23.115C465.027 22.9883 465.237 22.925 465.497 22.925C466.074 22.925 466.362 23.185 466.362 23.705V23.915C466.362 23.9917 466.295 24.03 466.162 24.03C466.029 24.03 465.962 23.9917 465.962 23.915ZM467.8 25.65H468.61C468.677 25.65 468.71 25.7083 468.71 25.825C468.71 25.9417 468.677 26 468.61 26H467.8C467.513 26 467.31 25.9317 467.19 25.795C467.07 25.655 467.01 25.43 467.01 25.12V22.39C467.01 22.3133 467.077 22.275 467.21 22.275C467.343 22.275 467.41 22.3133 467.41 22.39V25.12C467.41 25.3133 467.438 25.45 467.495 25.53C467.555 25.61 467.657 25.65 467.8 25.65ZM471.45 23.705V23.855C471.45 24.1383 471.391 24.3333 471.275 24.44C471.158 24.5467 470.945 24.615 470.635 24.645L469.66 24.74V25.335C469.66 25.595 469.876 25.725 470.31 25.725C470.803 25.725 471.05 25.6117 471.05 25.385V25.195C471.05 25.1183 471.116 25.08 471.25 25.08C471.383 25.08 471.45 25.1183 471.45 25.195V25.335C471.45 25.8283 471.083 26.075 470.35 26.075C470.026 26.075 469.763 26.0117 469.56 25.885C469.36 25.7583 469.26 25.5583 469.26 25.285V23.715C469.26 23.4383 469.366 23.2383 469.58 23.115C469.793 22.9883 470.071 22.925 470.415 22.925C470.758 22.925 471.016 22.985 471.19 23.105C471.363 23.225 471.45 23.425 471.45 23.705ZM469.66 23.665V24.39L470.6 24.295C470.79 24.275 470.911 24.235 470.965 24.175C471.021 24.115 471.05 24.0083 471.05 23.855V23.665C471.05 23.405 470.818 23.275 470.355 23.275C469.891 23.275 469.66 23.405 469.66 23.665ZM474.033 25.915C473.923 26.0217 473.737 26.075 473.473 26.075C473.21 26.075 473.023 26.0217 472.913 25.915C472.803 25.8083 472.728 25.6333 472.688 25.39L472.318 23.18C472.308 23.11 472.303 23.0717 472.303 23.065C472.303 23.005 472.367 22.975 472.493 22.975C472.62 22.975 472.69 23.0133 472.703 23.09L473.078 25.335C473.102 25.4783 473.138 25.58 473.188 25.64C473.242 25.6967 473.337 25.725 473.473 25.725C473.61 25.725 473.703 25.6967 473.753 25.64C473.807 25.58 473.845 25.4783 473.868 25.335L474.243 23.09C474.257 23.0133 474.327 22.975 474.453 22.975C474.58 22.975 474.643 23.005 474.643 23.065C474.643 23.0717 474.638 23.11 474.628 23.18L474.258 25.39C474.218 25.6333 474.143 25.8083 474.033 25.915ZM477.69 23.705V23.855C477.69 24.1383 477.632 24.3333 477.515 24.44C477.398 24.5467 477.185 24.615 476.875 24.645L475.9 24.74V25.335C475.9 25.595 476.117 25.725 476.55 25.725C477.043 25.725 477.29 25.6117 477.29 25.385V25.195C477.29 25.1183 477.357 25.08 477.49 25.08C477.623 25.08 477.69 25.1183 477.69 25.195V25.335C477.69 25.8283 477.323 26.075 476.59 26.075C476.267 26.075 476.003 26.0117 475.8 25.885C475.6 25.7583 475.5 25.5583 475.5 25.285V23.715C475.5 23.4383 475.607 23.2383 475.82 23.115C476.033 22.9883 476.312 22.925 476.655 22.925C476.998 22.925 477.257 22.985 477.43 23.105C477.603 23.225 477.69 23.425 477.69 23.705ZM475.9 23.665V24.39L476.84 24.295C477.03 24.275 477.152 24.235 477.205 24.175C477.262 24.115 477.29 24.0083 477.29 23.855V23.665C477.29 23.405 477.058 23.275 476.595 23.275C476.132 23.275 475.9 23.405 475.9 23.665ZM479.138 22.115V25.415C479.138 25.5217 479.163 25.6217 479.213 25.715C479.263 25.805 479.288 25.8517 479.288 25.855C479.288 25.895 479.257 25.9383 479.193 25.985C479.13 26.0283 479.077 26.05 479.033 26.05C478.963 26.05 478.897 25.99 478.833 25.87C478.77 25.7467 478.738 25.6117 478.738 25.465V22.115C478.738 22.0383 478.805 22 478.938 22C479.072 22 479.138 22.0383 479.138 22.115Z" fill="url(#paint39_linear_193_164)"/>
</g>
<path d="M458.216 15.1748L466.091 10.4633L476.034 15.677L468.522 21.2372L458.216 15.1748Z" fill="#D16E6E" fill-opacity="0.7"/>
<path d="M458.216 14.2031L466.091 9.49167L476.034 14.7053L468.522 20.2655L458.216 14.2031Z" fill="#E0A671" fill-opacity="0.7"/>
<path d="M458.216 12.9902L466.091 8.27878L476.034 13.4924L468.522 19.0526L458.216 12.9902Z" fill="#FCE729" fill-opacity="0.69"/>
<path d="M457.974 11.7793L465.849 7.06784L475.792 12.2815L468.28 17.8417L457.974 11.7793Z" fill="#BBE8B4" fill-opacity="0.69"/>
</g>
<!--certificate-->
<path d="M166.125 157.556C166.397 158.369 166.202 159.17 165.69 159.344C165.177 159.519 164.541 159.002 164.269 158.188C164.156 157.865 164.121 157.519 164.168 157.179L163.058 153.72L164.677 153.229L165.599 156.691C165.84 156.933 166.021 157.229 166.125 157.556Z" fill="#FFB6B6"/>
<path d="M166.805 137.962C166.805 137.962 164.36 138.069 164.254 139.357C164.147 140.645 161.11 148.677 161.11 148.677L163.499 156.043L165.356 154.838L164.295 149.079L167.877 143.587L166.805 137.962Z" fill="#81A2C9"/>
<path d="M160.705 190.301L161.998 190.496L163.455 184.703L161.546 184.414L160.705 190.301Z" fill="#FFB6B6"/>
<path d="M164.816 193.598C164.789 193.82 164.611 193.979 164.419 193.955L161.843 193.628C161.843 193.628 161.718 192.567 160.74 191.993L160.485 193.456L159.156 193.287L159.612 190.942C159.612 190.942 159.414 189.631 160.233 189.078C161.052 188.524 160.443 188.539 160.443 188.539L160.915 187.111L162.894 187.605L162.622 189.905L163.312 192.31L164.653 193.204C164.772 193.284 164.836 193.439 164.816 193.598Z" fill="#81A2C9"/>
<path d="M176.415 190.654L177.722 190.686L178.451 184.754L176.521 184.708L176.415 190.654Z" fill="#FFB6B6"/>
<path d="M180.902 193.409C180.902 193.632 180.745 193.813 180.552 193.813H177.956C177.956 193.813 177.7 192.776 176.659 192.33L176.587 193.813H175.248L175.41 191.428C175.41 191.428 175.052 190.153 175.796 189.501C176.54 188.849 175.937 188.94 175.937 188.94L176.23 187.464L178.253 187.704L178.268 190.021L179.25 192.32L180.691 193.038C180.819 193.102 180.902 193.248 180.902 193.409Z" fill="#81A2C9"/>
<path d="M166.638 151.557L164.118 159.964L164.571 172.676L160.936 185.643H163.822L169.834 172.85L171.459 161.513L175.952 186.105H178.744L178.093 160.329L176.062 151.336L166.638 151.557Z" fill="#3B412E"/>
<path d="M173.103 134.854L169.487 134.633L168.501 136.624L164.885 138.615L167.515 145.695L165.356 155.508C165.356 155.508 167.577 153.424 170.132 156.044C173.917 159.923 177.828 158.053 177.828 158.053L175.572 147.74L176.368 139.168C176.471 138.491 177.407 137.649 176.766 137.427L174.089 136.292L173.103 134.854Z" fill="#81A2C9"/>
<path d="M172.305 136.113H167.98C167.986 135.816 167.943 135.521 167.854 135.255C167.851 135.551 167.807 135.843 167.723 136.113H167.526C167.226 136.112 166.982 135.757 166.982 135.318C165.966 134.178 166.099 132.78 166.982 131.214C166.982 129.204 168.159 126.192 169.437 127.453C169.479 127.449 170.127 127.03 170.168 127.03C171.293 127.032 171.679 128.514 172.019 130.079C172.406 129.819 172.673 130.906 172.866 132.819C172.922 133.378 172.972 134.007 173.017 134.693C173.141 135.268 172.922 135.882 172.527 136.063C172.455 136.096 172.38 136.113 172.304 136.113L172.305 136.113Z" fill="#2F2E41"/>
<path d="M171.421 134.349C173.176 134.349 174.599 132.913 174.599 131.141C174.599 129.369 173.176 127.933 171.421 127.933C169.666 127.933 168.243 129.369 168.243 131.141C168.243 132.913 169.666 134.349 171.421 134.349Z" fill="#FFB6B6"/>
<path d="M171.724 136.221C171.427 136.622 170.906 136.781 170.438 136.615L169.022 136.112C168.89 136.112 168.777 136.034 168.771 135.933L168.77 135.921C168.756 135.71 168.369 135.674 168.279 135.875C168.243 135.955 168.202 136.035 168.156 136.112H167.899V129.869C167.899 128.799 169.031 127.931 170.427 127.931C171.619 127.931 172.649 128.569 172.899 129.463C172.899 129.463 174.671 131.13 173.627 132.067C172.582 133.005 174.102 133.767 174.102 133.767C174.403 134.847 173.444 136.603 172.086 136.96C171.926 137.002 171.894 136.221 171.724 136.221Z" fill="#A79B7C"/>
<path d="M175.381 130.665C175.25 130.851 174.91 131.341 173.847 131.266C173.577 131.246 172.616 130.979 171.916 130.992C171.453 131.001 171.168 130.997 170.597 130.992C169.922 130.986 169.737 130.973 169.607 130.828C169.355 130.548 169.563 130.05 169.442 130.009C169.341 129.975 169.081 130.283 168.947 130.665C168.667 131.466 169.673 132.582 169.772 133.614C169.878 134.727 168.838 132.595 168.947 133.614C169.069 134.762 169.506 134.675 169.501 135.089C169.5 135.152 169.482 135.206 169.442 135.253C169.407 135.296 169.373 135.312 168.782 135.417C168.076 135.543 167.722 135.606 167.628 135.581C167.385 135.519 167.139 135.173 166.968 134.926C166.684 134.521 166.885 134.929 166.968 134.434C167.047 133.955 167.294 133.893 167.298 133.451C167.301 132.893 166.91 132.725 166.638 132.14C166.135 131.058 166.626 129.806 166.803 129.353C166.888 129.137 167.041 128.862 167.311 128.408C167.527 128.044 167.814 127.724 168.164 127.483C168.689 127.123 169.299 126.876 169.958 126.778C170.319 126.725 170.687 126.753 171.042 126.838L171.961 127.057C172.348 127.149 172.712 127.316 173.033 127.549C173.333 127.55 173.592 127.742 173.695 128.022C173.706 128.051 173.715 128.068 173.723 128.065C175.381 127.551 175.379 129.075 175.361 130.027C175.359 130.125 175.363 130.211 175.376 130.281V130.286C175.409 130.474 175.417 130.612 175.381 130.665Z" fill="#A79B7C"/>
<path d="M178.156 158.399C178.218 159.255 178.705 159.917 179.245 159.877C179.784 159.837 180.171 159.111 180.11 158.255C180.09 157.913 179.989 157.58 179.815 157.285L179.509 153.662L177.828 153.843L178.308 157.396C178.179 157.713 178.127 158.057 178.156 158.399Z" fill="#FFB6B6"/>
<path d="M175.583 137.292C175.583 137.292 178.028 137.399 178.134 138.687C178.24 139.975 179.41 148.238 179.41 148.238L179.941 156.501L178.028 156.823L175.705 147.057L175.583 137.292Z" fill="#81A2C9"/>
<defs>
<filter id="filter0_d_193_164" x="136.291" y="332.769" width="69.4971" height="27.7227" filterUnits="userSpaceOnUse" color-interpolation-filters="sRGB">
<feFlood flood-opacity="0" result="BackgroundImageFix"/>
<feColorMatrix in="SourceAlpha" type="matrix" values="0 0 0 0 0 0 0 0 0 0 0 0 0 0 0 0 0 0 127 0" result="hardAlpha"/>
<feOffset/>
<feGaussianBlur stdDeviation="2"/>
<feComposite in2="hardAlpha" operator="out"/>
<feColorMatrix type="matrix" values="0 0 0 0 0.760784 0 0 0 0 0.870588 0 0 0 0 0.584314 0 0 0 1 0"/>
<feBlend mode="normal" in2="BackgroundImageFix" result="effect1_dropShadow_193_164"/>
<feBlend mode="normal" in="SourceGraphic" in2="effect1_dropShadow_193_164" result="shape"/>
</filter>
<filter id="filter1_d_193_164" x="136.291" y="188.133" width="9" height="162.198" filterUnits="userSpaceOnUse" color-interpolation-filters="sRGB">
<feFlood flood-opacity="0" result="BackgroundImageFix"/>
<feColorMatrix in="SourceAlpha" type="matrix" values="0 0 0 0 0 0 0 0 0 0 0 0 0 0 0 0 0 0 127 0" result="hardAlpha"/>
<feOffset/>
<feGaussianBlur stdDeviation="2"/>
<feComposite in2="hardAlpha" operator="out"/>
<feColorMatrix type="matrix" values="0 0 0 0 0.760784 0 0 0 0 0.870588 0 0 0 0 0.584314 0 0 0 1 0"/>
<feBlend mode="normal" in2="BackgroundImageFix" result="effect1_dropShadow_193_164"/>
<feBlend mode="normal" in="SourceGraphic" in2="effect1_dropShadow_193_164" result="shape"/>
</filter>
<filter id="filter2_d_193_164" x="195.866" y="188.133" width="9" height="162.198" filterUnits="userSpaceOnUse" color-interpolation-filters="sRGB">
<feFlood flood-opacity="0" result="BackgroundImageFix"/>
<feColorMatrix in="SourceAlpha" type="matrix" values="0 0 0 0 0 0 0 0 0 0 0 0 0 0 0 0 0 0 127 0" result="hardAlpha"/>
<feOffset/>
<feGaussianBlur stdDeviation="2"/>
<feComposite in2="hardAlpha" operator="out"/>
<feColorMatrix type="matrix" values="0 0 0 0 0.760784 0 0 0 0 0.870588 0 0 0 0 0.584314 0 0 0 1 0"/>
<feBlend mode="normal" in2="BackgroundImageFix" result="effect1_dropShadow_193_164"/>
<feBlend mode="normal" in="SourceGraphic" in2="effect1_dropShadow_193_164" result="shape"/>
</filter>
<filter id="filter3_d_193_164" x="164.157" y="179.765" width="9" height="162.198" filterUnits="userSpaceOnUse" color-interpolation-filters="sRGB">
<feFlood flood-opacity="0" result="BackgroundImageFix"/>
<feColorMatrix in="SourceAlpha" type="matrix" values="0 0 0 0 0 0 0 0 0 0 0 0 0 0 0 0 0 0 127 0" result="hardAlpha"/>
<feOffset/>
<feGaussianBlur stdDeviation="2"/>
<feComposite in2="hardAlpha" operator="out"/>
<feColorMatrix type="matrix" values="0 0 0 0 0.760784 0 0 0 0 0.870588 0 0 0 0 0.584314 0 0 0 1 0"/>
<feBlend mode="normal" in2="BackgroundImageFix" result="effect1_dropShadow_193_164"/>
<feBlend mode="normal" in="SourceGraphic" in2="effect1_dropShadow_193_164" result="shape"/>
</filter>
<filter id="filter4_d_193_164" x="168.961" y="197.696" width="9" height="162.198" filterUnits="userSpaceOnUse" color-interpolation-filters="sRGB">
<feFlood flood-opacity="0" result="BackgroundImageFix"/>
<feColorMatrix in="SourceAlpha" type="matrix" values="0 0 0 0 0 0 0 0 0 0 0 0 0 0 0 0 0 0 127 0" result="hardAlpha"/>
<feOffset/>
<feGaussianBlur stdDeviation="2"/>
<feComposite in2="hardAlpha" operator="out"/>
<feColorMatrix type="matrix" values="0 0 0 0 0.760784 0 0 0 0 0.870588 0 0 0 0 0.584314 0 0 0 1 0"/>
<feBlend mode="normal" in2="BackgroundImageFix" result="effect1_dropShadow_193_164"/>
<feBlend mode="normal" in="SourceGraphic" in2="effect1_dropShadow_193_164" result="shape"/>
</filter>
<filter id="filter5_d_193_164" x="136.291" y="178.57" width="69.4971" height="27.7227" filterUnits="userSpaceOnUse" color-interpolation-filters="sRGB">
<feFlood flood-opacity="0" result="BackgroundImageFix"/>
<feColorMatrix in="SourceAlpha" type="matrix" values="0 0 0 0 0 0 0 0 0 0 0 0 0 0 0 0 0 0 127 0" result="hardAlpha"/>
<feOffset/>
<feGaussianBlur stdDeviation="2"/>
<feComposite in2="hardAlpha" operator="out"/>
<feColorMatrix type="matrix" values="0 0 0 0 0.760784 0 0 0 0 0.870588 0 0 0 0 0.584314 0 0 0 1 0"/>
<feBlend mode="normal" in2="BackgroundImageFix" result="effect1_dropShadow_193_164"/>
<feBlend mode="normal" in="SourceGraphic" in2="effect1_dropShadow_193_164" result="shape"/>
</filter>
<filter id="filter6_f_193_164" x="432.72" y="501.43" width="69.0234" height="26.2568" filterUnits="userSpaceOnUse" color-interpolation-filters="sRGB">
<feFlood flood-opacity="0" result="BackgroundImageFix"/>
<feBlend mode="normal" in="SourceGraphic" in2="BackgroundImageFix" result="shape"/>
<feGaussianBlur stdDeviation="2" result="effect1_foregroundBlur_193_164"/>
</filter>
<filter id="filter7_f_193_164" x="432.246" y="279.46" width="9" height="239.031" filterUnits="userSpaceOnUse" color-interpolation-filters="sRGB">
<feFlood flood-opacity="0" result="BackgroundImageFix"/>
<feBlend mode="normal" in="SourceGraphic" in2="BackgroundImageFix" result="shape"/>
<feGaussianBlur stdDeviation="2" result="effect1_foregroundBlur_193_164"/>
</filter>
<filter id="filter8_f_193_164" x="491.821" y="279.46" width="9" height="239.031" filterUnits="userSpaceOnUse" color-interpolation-filters="sRGB">
<feFlood flood-opacity="0" result="BackgroundImageFix"/>
<feBlend mode="normal" in="SourceGraphic" in2="BackgroundImageFix" result="shape"/>
<feGaussianBlur stdDeviation="2" result="effect1_foregroundBlur_193_164"/>
</filter>
<filter id="filter9_f_193_164" x="460.111" y="271.774" width="9" height="238.346" filterUnits="userSpaceOnUse" color-interpolation-filters="sRGB">
<feFlood flood-opacity="0" result="BackgroundImageFix"/>
<feBlend mode="normal" in="SourceGraphic" in2="BackgroundImageFix" result="shape"/>
<feGaussianBlur stdDeviation="2" result="effect1_foregroundBlur_193_164"/>
</filter>
<filter id="filter10_f_193_164" x="463.956" y="289.072" width="9" height="238.614" filterUnits="userSpaceOnUse" color-interpolation-filters="sRGB">
<feFlood flood-opacity="0" result="BackgroundImageFix"/>
<feBlend mode="normal" in="SourceGraphic" in2="BackgroundImageFix" result="shape"/>
<feGaussianBlur stdDeviation="2" result="effect1_foregroundBlur_193_164"/>
</filter>
<filter id="filter11_f_193_164" x="432.246" y="270.815" width="69.4971" height="27.2178" filterUnits="userSpaceOnUse" color-interpolation-filters="sRGB">
<feFlood flood-opacity="0" result="BackgroundImageFix"/>
<feBlend mode="normal" in="SourceGraphic" in2="BackgroundImageFix" result="shape"/>
<feGaussianBlur stdDeviation="2" result="effect1_foregroundBlur_193_164"/>
</filter>
<filter id="filter12_df_193_164" x="136.291" y="492.276" width="69.4971" height="31.7227" filterUnits="userSpaceOnUse" color-interpolation-filters="sRGB">
<feFlood flood-opacity="0" result="BackgroundImageFix"/>
<feColorMatrix in="SourceAlpha" type="matrix" values="0 0 0 0 0 0 0 0 0 0 0 0 0 0 0 0 0 0 127 0" result="hardAlpha"/>
<feOffset dy="4"/>
<feGaussianBlur stdDeviation="2"/>
<feComposite in2="hardAlpha" operator="out"/>
<feColorMatrix type="matrix" values="0 0 0 0 0 0 0 0 0 0 0 0 0 0 0 0 0 0 0.25 0"/>
<feBlend mode="normal" in2="BackgroundImageFix" result="effect1_dropShadow_193_164"/>
<feBlend mode="normal" in="SourceGraphic" in2="effect1_dropShadow_193_164" result="shape"/>
<feGaussianBlur stdDeviation="2" result="effect2_foregroundBlur_193_164"/>
</filter>
<filter id="filter13_df_193_164" x="136.291" y="347.641" width="9" height="166.198" filterUnits="userSpaceOnUse" color-interpolation-filters="sRGB">
<feFlood flood-opacity="0" result="BackgroundImageFix"/>
<feColorMatrix in="SourceAlpha" type="matrix" values="0 0 0 0 0 0 0 0 0 0 0 0 0 0 0 0 0 0 127 0" result="hardAlpha"/>
<feOffset dy="4"/>
<feGaussianBlur stdDeviation="2"/>
<feComposite in2="hardAlpha" operator="out"/>
<feColorMatrix type="matrix" values="0 0 0 0 0 0 0 0 0 0 0 0 0 0 0 0 0 0 0.25 0"/>
<feBlend mode="normal" in2="BackgroundImageFix" result="effect1_dropShadow_193_164"/>
<feBlend mode="normal" in="SourceGraphic" in2="effect1_dropShadow_193_164" result="shape"/>
<feGaussianBlur stdDeviation="2" result="effect2_foregroundBlur_193_164"/>
</filter>
<filter id="filter14_df_193_164" x="195.866" y="347.641" width="9" height="166.198" filterUnits="userSpaceOnUse" color-interpolation-filters="sRGB">
<feFlood flood-opacity="0" result="BackgroundImageFix"/>
<feColorMatrix in="SourceAlpha" type="matrix" values="0 0 0 0 0 0 0 0 0 0 0 0 0 0 0 0 0 0 127 0" result="hardAlpha"/>
<feOffset dy="4"/>
<feGaussianBlur stdDeviation="2"/>
<feComposite in2="hardAlpha" operator="out"/>
<feColorMatrix type="matrix" values="0 0 0 0 0 0 0 0 0 0 0 0 0 0 0 0 0 0 0.25 0"/>
<feBlend mode="normal" in2="BackgroundImageFix" result="effect1_dropShadow_193_164"/>
<feBlend mode="normal" in="SourceGraphic" in2="effect1_dropShadow_193_164" result="shape"/>
<feGaussianBlur stdDeviation="2" result="effect2_foregroundBlur_193_164"/>
</filter>
<filter id="filter15_df_193_164" x="164.157" y="339.273" width="9" height="166.198" filterUnits="userSpaceOnUse" color-interpolation-filters="sRGB">
<feFlood flood-opacity="0" result="BackgroundImageFix"/>
<feColorMatrix in="SourceAlpha" type="matrix" values="0 0 0 0 0 0 0 0 0 0 0 0 0 0 0 0 0 0 127 0" result="hardAlpha"/>
<feOffset dy="4"/>
<feGaussianBlur stdDeviation="2"/>
<feComposite in2="hardAlpha" operator="out"/>
<feColorMatrix type="matrix" values="0 0 0 0 0 0 0 0 0 0 0 0 0 0 0 0 0 0 0.25 0"/>
<feBlend mode="normal" in2="BackgroundImageFix" result="effect1_dropShadow_193_164"/>
<feBlend mode="normal" in="SourceGraphic" in2="effect1_dropShadow_193_164" result="shape"/>
<feGaussianBlur stdDeviation="2" result="effect2_foregroundBlur_193_164"/>
</filter>
<filter id="filter16_df_193_164" x="168.961" y="357.204" width="9" height="166.198" filterUnits="userSpaceOnUse" color-interpolation-filters="sRGB">
<feFlood flood-opacity="0" result="BackgroundImageFix"/>
<feColorMatrix in="SourceAlpha" type="matrix" values="0 0 0 0 0 0 0 0 0 0 0 0 0 0 0 0 0 0 127 0" result="hardAlpha"/>
<feOffset dy="4"/>
<feGaussianBlur stdDeviation="2"/>
<feComposite in2="hardAlpha" operator="out"/>
<feColorMatrix type="matrix" values="0 0 0 0 0 0 0 0 0 0 0 0 0 0 0 0 0 0 0.25 0"/>
<feBlend mode="normal" in2="BackgroundImageFix" result="effect1_dropShadow_193_164"/>
<feBlend mode="normal" in="SourceGraphic" in2="effect1_dropShadow_193_164" result="shape"/>
<feGaussianBlur stdDeviation="2" result="effect2_foregroundBlur_193_164"/>
</filter>
<filter id="filter17_df_193_164" x="136.291" y="338.078" width="69.4971" height="31.7227" filterUnits="userSpaceOnUse" color-interpolation-filters="sRGB">
<feFlood flood-opacity="0" result="BackgroundImageFix"/>
<feColorMatrix in="SourceAlpha" type="matrix" values="0 0 0 0 0 0 0 0 0 0 0 0 0 0 0 0 0 0 127 0" result="hardAlpha"/>
<feOffset dy="4"/>
<feGaussianBlur stdDeviation="2"/>
<feComposite in2="hardAlpha" operator="out"/>
<feColorMatrix type="matrix" values="0 0 0 0 0 0 0 0 0 0 0 0 0 0 0 0 0 0 0.25 0"/>
<feBlend mode="normal" in2="BackgroundImageFix" result="effect1_dropShadow_193_164"/>
<feBlend mode="normal" in="SourceGraphic" in2="effect1_dropShadow_193_164" result="shape"/>
<feGaussianBlur stdDeviation="2" result="effect2_foregroundBlur_193_164"/>
</filter>
<filter id="filter18_d_193_164" x="432.72" y="266.972" width="69.0234" height="26.2568" filterUnits="userSpaceOnUse" color-interpolation-filters="sRGB">
<feFlood flood-opacity="0" result="BackgroundImageFix"/>
<feColorMatrix in="SourceAlpha" type="matrix" values="0 0 0 0 0 0 0 0 0 0 0 0 0 0 0 0 0 0 127 0" result="hardAlpha"/>
<feOffset/>
<feGaussianBlur stdDeviation="2"/>
<feComposite in2="hardAlpha" operator="out"/>
<feColorMatrix type="matrix" values="0 0 0 0 0.760784 0 0 0 0 0.870588 0 0 0 0 0.584314 0 0 0 1 0"/>
<feBlend mode="normal" in2="BackgroundImageFix" result="effect1_dropShadow_193_164"/>
<feBlend mode="normal" in="SourceGraphic" in2="effect1_dropShadow_193_164" result="shape"/>
</filter>
<filter id="filter19_d_193_164" x="432.246" y="45.002" width="9" height="239.031" filterUnits="userSpaceOnUse" color-interpolation-filters="sRGB">
<feFlood flood-opacity="0" result="BackgroundImageFix"/>
<feColorMatrix in="SourceAlpha" type="matrix" values="0 0 0 0 0 0 0 0 0 0 0 0 0 0 0 0 0 0 127 0" result="hardAlpha"/>
<feOffset/>
<feGaussianBlur stdDeviation="2"/>
<feComposite in2="hardAlpha" operator="out"/>
<feColorMatrix type="matrix" values="0 0 0 0 0.760784 0 0 0 0 0.870588 0 0 0 0 0.584314 0 0 0 1 0"/>
<feBlend mode="normal" in2="BackgroundImageFix" result="effect1_dropShadow_193_164"/>
<feBlend mode="normal" in="SourceGraphic" in2="effect1_dropShadow_193_164" result="shape"/>
</filter>
<filter id="filter20_d_193_164" x="491.821" y="45.002" width="9" height="239.031" filterUnits="userSpaceOnUse" color-interpolation-filters="sRGB">
<feFlood flood-opacity="0" result="BackgroundImageFix"/>
<feColorMatrix in="SourceAlpha" type="matrix" values="0 0 0 0 0 0 0 0 0 0 0 0 0 0 0 0 0 0 127 0" result="hardAlpha"/>
<feOffset/>
<feGaussianBlur stdDeviation="2"/>
<feComposite in2="hardAlpha" operator="out"/>
<feColorMatrix type="matrix" values="0 0 0 0 0.760784 0 0 0 0 0.870588 0 0 0 0 0.584314 0 0 0 1 0"/>
<feBlend mode="normal" in2="BackgroundImageFix" result="effect1_dropShadow_193_164"/>
<feBlend mode="normal" in="SourceGraphic" in2="effect1_dropShadow_193_164" result="shape"/>
</filter>
<filter id="filter21_d_193_164" x="460.111" y="37.3164" width="9" height="238.346" filterUnits="userSpaceOnUse" color-interpolation-filters="sRGB">
<feFlood flood-opacity="0" result="BackgroundImageFix"/>
<feColorMatrix in="SourceAlpha" type="matrix" values="0 0 0 0 0 0 0 0 0 0 0 0 0 0 0 0 0 0 127 0" result="hardAlpha"/>
<feOffset/>
<feGaussianBlur stdDeviation="2"/>
<feComposite in2="hardAlpha" operator="out"/>
<feColorMatrix type="matrix" values="0 0 0 0 0.760784 0 0 0 0 0.870588 0 0 0 0 0.584314 0 0 0 1 0"/>
<feBlend mode="normal" in2="BackgroundImageFix" result="effect1_dropShadow_193_164"/>
<feBlend mode="normal" in="SourceGraphic" in2="effect1_dropShadow_193_164" result="shape"/>
</filter>
<filter id="filter22_d_193_164" x="463.956" y="54.6152" width="9" height="238.614" filterUnits="userSpaceOnUse" color-interpolation-filters="sRGB">
<feFlood flood-opacity="0" result="BackgroundImageFix"/>
<feColorMatrix in="SourceAlpha" type="matrix" values="0 0 0 0 0 0 0 0 0 0 0 0 0 0 0 0 0 0 127 0" result="hardAlpha"/>
<feOffset/>
<feGaussianBlur stdDeviation="2"/>
<feComposite in2="hardAlpha" operator="out"/>
<feColorMatrix type="matrix" values="0 0 0 0 0.760784 0 0 0 0 0.870588 0 0 0 0 0.584314 0 0 0 1 0"/>
<feBlend mode="normal" in2="BackgroundImageFix" result="effect1_dropShadow_193_164"/>
<feBlend mode="normal" in="SourceGraphic" in2="effect1_dropShadow_193_164" result="shape"/>
</filter>
<filter id="filter23_d_193_164" x="432.246" y="36.3574" width="69.4971" height="27.2178" filterUnits="userSpaceOnUse" color-interpolation-filters="sRGB">
<feFlood flood-opacity="0" result="BackgroundImageFix"/>
<feColorMatrix in="SourceAlpha" type="matrix" values="0 0 0 0 0 0 0 0 0 0 0 0 0 0 0 0 0 0 127 0" result="hardAlpha"/>
<feOffset/>
<feGaussianBlur stdDeviation="2"/>
<feComposite in2="hardAlpha" operator="out"/>
<feColorMatrix type="matrix" values="0 0 0 0 0.760784 0 0 0 0 0.870588 0 0 0 0 0.584314 0 0 0 1 0"/>
<feBlend mode="normal" in2="BackgroundImageFix" result="effect1_dropShadow_193_164"/>
<feBlend mode="normal" in="SourceGraphic" in2="effect1_dropShadow_193_164" result="shape"/>
</filter>
<filter id="filter24_d_193_164" x="455.23" y="22" width="24.3586" height="4.0752" filterUnits="userSpaceOnUse" color-interpolation-filters="sRGB">
<feFlood flood-opacity="0" result="BackgroundImageFix"/>
<feColorMatrix in="SourceAlpha" type="matrix" values="0 0 0 0 0 0 0 0 0 0 0 0 0 0 0 0 0 0 127 0" result="hardAlpha"/>
<feOffset dx="0.3"/>
<feComposite in2="hardAlpha" operator="out"/>
<feColorMatrix type="matrix" values="0 0 0 0 0.575604 0 0 0 0 0.583333 0 0 0 0 0.196875 0 0 0 1 0"/>
<feBlend mode="normal" in2="BackgroundImageFix" result="effect1_dropShadow_193_164"/>
<feBlend mode="normal" in="SourceGraphic" in2="effect1_dropShadow_193_164" result="shape"/>
</filter>
<radialGradient id="paint0_diamond_193_164" cx="0" cy="0" r="1" gradientUnits="userSpaceOnUse" gradientTransform="translate(388.201 251.755) rotate(148.625) scale(573.985 799.915)">
<stop offset="0.015625" stop-color="#387074" stop-opacity="0.58"/>
<stop offset="0.291667" stop-color="#387074" stop-opacity="0"/>
</radialGradient>
<linearGradient id="paint1_linear_193_164" x1="247.911" y1="321.327" x2="241.458" y2="394.877" gradientUnits="userSpaceOnUse">
<stop offset="0.822917" stop-color="#D48C8C"/>
<stop offset="1" stop-color="#EDAD4C"/>
</linearGradient>
<radialGradient id="paint2_radial_193_164" cx="0" cy="0" r="1" gradientUnits="userSpaceOnUse" gradientTransform="translate(218.123 341.117) rotate(90) scale(6.72626 20.1788)">
<stop stop-color="#ABC17A"/>
<stop offset="0.588542" stop-color="#89A253" stop-opacity="0"/>
</radialGradient>
<radialGradient id="paint3_radial_193_164" cx="0" cy="0" r="1" gradientUnits="userSpaceOnUse" gradientTransform="translate(264.246 331.508) rotate(90) scale(6.72626 20.1788)">
<stop stop-color="#ABC17A"/>
<stop offset="0.588542" stop-color="#89A253" stop-opacity="0"/>
</radialGradient>
<radialGradient id="paint4_radial_193_164" cx="0" cy="0" r="1" gradientUnits="userSpaceOnUse" gradientTransform="translate(296.917 329.587) rotate(90) scale(6.72626 20.1788)">
<stop stop-color="#ABC17A"/>
<stop offset="0.588542" stop-color="#89A253" stop-opacity="0"/>
</radialGradient>
<radialGradient id="paint5_radial_193_164" cx="0" cy="0" r="1" gradientUnits="userSpaceOnUse" gradientTransform="translate(316.134 321.9) rotate(90) scale(6.72626 20.1788)">
<stop stop-color="#ABC17A"/>
<stop offset="0.588542" stop-color="#89A253" stop-opacity="0"/>
</radialGradient>
<radialGradient id="paint6_radial_193_164" cx="0" cy="0" r="1" gradientUnits="userSpaceOnUse" gradientTransform="translate(346.882 321.9) rotate(90) scale(6.72626 20.1788)">
<stop stop-color="#ABC17A"/>
<stop offset="0.588542" stop-color="#89A253" stop-opacity="0"/>
</radialGradient>
<radialGradient id="paint7_radial_193_164" cx="0" cy="0" r="1" gradientUnits="userSpaceOnUse" gradientTransform="translate(366.101 312.291) rotate(90) scale(6.72626 20.1788)">
<stop stop-color="#ABC17A"/>
<stop offset="0.588542" stop-color="#89A253" stop-opacity="0"/>
</radialGradient>
<radialGradient id="paint8_radial_193_164" cx="0" cy="0" r="1" gradientUnits="userSpaceOnUse" gradientTransform="translate(394.928 310.368) rotate(90) scale(6.72626 20.1788)">
<stop stop-color="#ABC17A"/>
<stop offset="0.588542" stop-color="#89A253" stop-opacity="0"/>
</radialGradient>
<radialGradient id="paint9_radial_193_164" cx="0" cy="0" r="1" gradientUnits="userSpaceOnUse" gradientTransform="translate(412.223 300.76) rotate(90) scale(6.72626 20.1788)">
<stop stop-color="#ABC17A"/>
<stop offset="0.588542" stop-color="#89A253" stop-opacity="0"/>
</radialGradient>
<radialGradient id="paint10_radial_193_164" cx="0" cy="0" r="1" gradientUnits="userSpaceOnUse" gradientTransform="translate(441.05 296.917) rotate(90) scale(6.72626 20.1788)">
<stop stop-color="#ABC17A"/>
<stop offset="0.588542" stop-color="#89A253" stop-opacity="0"/>
</radialGradient>
<radialGradient id="paint11_radial_193_164" cx="0" cy="0" r="1" gradientUnits="userSpaceOnUse" gradientTransform="translate(246.95 341.117) rotate(90) scale(6.72626 20.1788)">
<stop stop-color="#ABC17A"/>
<stop offset="0.588542" stop-color="#89A253" stop-opacity="0"/>
</radialGradient>
<linearGradient id="paint12_linear_193_164" x1="155.791" y1="230.683" x2="107.966" y2="345.963" gradientUnits="userSpaceOnUse">
<stop offset="0.276042" stop-color="#D48C8C"/>
<stop offset="1" stop-color="#EDAD4C"/>
</linearGradient>
<linearGradient id="paint13_linear_193_164" x1="215.367" y1="230.683" x2="167.541" y2="345.963" gradientUnits="userSpaceOnUse">
<stop offset="0.276042" stop-color="#D48C8C"/>
<stop offset="1" stop-color="#EDAD4C"/>
</linearGradient>
<linearGradient id="paint14_linear_193_164" x1="183.657" y1="222.314" x2="135.832" y2="337.595" gradientUnits="userSpaceOnUse">
<stop offset="0.276042" stop-color="#D48C8C"/>
<stop offset="1" stop-color="#EDAD4C"/>
</linearGradient>
<linearGradient id="paint15_linear_193_164" x1="188.461" y1="240.246" x2="140.636" y2="355.526" gradientUnits="userSpaceOnUse">
<stop offset="0.276042" stop-color="#D48C8C"/>
<stop offset="1" stop-color="#EDAD4C"/>
</linearGradient>
<radialGradient id="paint16_radial_193_164" cx="0" cy="0" r="1" gradientUnits="userSpaceOnUse" gradientTransform="translate(171.039 192.432) rotate(90) scale(9.86155 30.7486)">
<stop stop-color="#6F706D"/>
<stop offset="0.744792" stop-color="#D48C8C"/>
</radialGradient>
<linearGradient id="paint17_linear_193_164" x1="247.911" y1="167.129" x2="241.458" y2="240.679" gradientUnits="userSpaceOnUse">
<stop offset="0.822917" stop-color="#D48C8C"/>
<stop offset="1" stop-color="#EDAD4C"/>
</linearGradient>
<linearGradient id="paint18_linear_193_164" x1="544.827" y1="489.483" x2="538.374" y2="563.034" gradientUnits="userSpaceOnUse">
<stop offset="0.822917" stop-color="#C2DE95"/>
<stop offset="1" stop-color="#EAD731"/>
</linearGradient>
<linearGradient id="paint19_linear_193_164" x1="451.746" y1="341.218" x2="360.979" y2="487.247" gradientUnits="userSpaceOnUse">
<stop offset="0.276042" stop-color="#C2DE95"/>
<stop offset="1" stop-color="#EAD731"/>
</linearGradient>
<linearGradient id="paint20_linear_193_164" x1="511.321" y1="341.218" x2="420.553" y2="487.247" gradientUnits="userSpaceOnUse">
<stop offset="0.276042" stop-color="#C2DE95"/>
<stop offset="1" stop-color="#EAD731"/>
</linearGradient>
<linearGradient id="paint21_linear_193_164" x1="479.612" y1="333.361" x2="389.232" y2="479.198" gradientUnits="userSpaceOnUse">
<stop offset="0.276042" stop-color="#C2DE95"/>
<stop offset="1" stop-color="#EAD731"/>
</linearGradient>
<linearGradient id="paint22_linear_193_164" x1="483.456" y1="350.726" x2="392.924" y2="496.639" gradientUnits="userSpaceOnUse">
<stop offset="0.276042" stop-color="#C2DE95"/>
<stop offset="1" stop-color="#EAD731"/>
</linearGradient>
<linearGradient id="paint23_linear_193_164" x1="542.905" y1="258.413" x2="536.452" y2="331.963" gradientUnits="userSpaceOnUse">
<stop offset="0.822917" stop-color="#C2DE95"/>
<stop offset="1" stop-color="#EAD731"/>
</linearGradient>
<linearGradient id="paint24_linear_193_164" x1="247.911" y1="480.835" x2="241.458" y2="554.385" gradientUnits="userSpaceOnUse">
<stop offset="0.822917" stop-color="#D48C8C"/>
<stop offset="1" stop-color="#EDAD4C"/>
</linearGradient>
<linearGradient id="paint25_linear_193_164" x1="155.791" y1="390.19" x2="107.966" y2="505.471" gradientUnits="userSpaceOnUse">
<stop offset="0.276042" stop-color="#D48C8C"/>
<stop offset="1" stop-color="#EDAD4C"/>
</linearGradient>
<linearGradient id="paint26_linear_193_164" x1="215.367" y1="390.19" x2="167.541" y2="505.471" gradientUnits="userSpaceOnUse">
<stop offset="0.276042" stop-color="#D48C8C"/>
<stop offset="1" stop-color="#EDAD4C"/>
</linearGradient>
<linearGradient id="paint27_linear_193_164" x1="183.657" y1="381.823" x2="135.832" y2="497.104" gradientUnits="userSpaceOnUse">
<stop offset="0.276042" stop-color="#D48C8C"/>
<stop offset="1" stop-color="#EDAD4C"/>
</linearGradient>
<linearGradient id="paint28_linear_193_164" x1="188.461" y1="399.754" x2="140.636" y2="515.034" gradientUnits="userSpaceOnUse">
<stop offset="0.276042" stop-color="#D48C8C"/>
<stop offset="1" stop-color="#EDAD4C"/>
</linearGradient>
<linearGradient id="paint29_linear_193_164" x1="247.911" y1="326.636" x2="241.458" y2="400.187" gradientUnits="userSpaceOnUse">
<stop offset="0.822917" stop-color="#D48C8C"/>
<stop offset="1" stop-color="#EDAD4C"/>
</linearGradient>
<linearGradient id="paint30_linear_193_164" x1="195.244" y1="229.397" x2="580.514" y2="229.397" gradientUnits="userSpaceOnUse">
<stop stop-color="#D48C8C" stop-opacity="0.81"/>
<stop offset="0.286458" stop-color="#387074" stop-opacity="0.34"/>
<stop offset="0.661458" stop-color="#C2DE95" stop-opacity="0.52"/>
</linearGradient>
<linearGradient id="paint31_linear_193_164" x1="544.827" y1="255.025" x2="538.374" y2="328.576" gradientUnits="userSpaceOnUse">
<stop offset="0.822917" stop-color="#C2DE95"/>
<stop offset="1" stop-color="#EAD731"/>
</linearGradient>
<linearGradient id="paint32_linear_193_164" x1="451.746" y1="106.76" x2="360.979" y2="252.789" gradientUnits="userSpaceOnUse">
<stop offset="0.276042" stop-color="#C2DE95"/>
<stop offset="1" stop-color="#EAD731"/>
</linearGradient>
<linearGradient id="paint33_linear_193_164" x1="511.321" y1="106.76" x2="420.553" y2="252.789" gradientUnits="userSpaceOnUse">
<stop offset="0.276042" stop-color="#C2DE95"/>
<stop offset="1" stop-color="#EAD731"/>
</linearGradient>
<linearGradient id="paint34_linear_193_164" x1="479.612" y1="98.9031" x2="389.232" y2="244.74" gradientUnits="userSpaceOnUse">
<stop offset="0.276042" stop-color="#C2DE95"/>
<stop offset="1" stop-color="#EAD731"/>
</linearGradient>
<linearGradient id="paint35_linear_193_164" x1="483.456" y1="116.269" x2="392.924" y2="262.181" gradientUnits="userSpaceOnUse">
<stop offset="0.276042" stop-color="#C2DE95"/>
<stop offset="1" stop-color="#EAD731"/>
</linearGradient>
<radialGradient id="paint36_radial_193_164" cx="0" cy="0" r="1" gradientUnits="userSpaceOnUse" gradientTransform="translate(466.995 49.9664) rotate(90) scale(9.60894 30.7486)">
<stop stop-color="#6F706D"/>
<stop offset="0.385417" stop-color="#C2DE95"/>
</radialGradient>
<linearGradient id="paint37_linear_193_164" x1="542.905" y1="23.9549" x2="536.452" y2="97.5054" gradientUnits="userSpaceOnUse">
<stop offset="0.822917" stop-color="#C2DE95"/>
<stop offset="1" stop-color="#EAD731"/>
</linearGradient>
<linearGradient id="paint38_linear_193_164" x1="-30.7721" y1="252.251" x2="698.237" y2="252.253" gradientUnits="userSpaceOnUse">
<stop offset="0.135417" stop-color="#D48C8C" stop-opacity="0.06"/>
<stop offset="0.473958" stop-color="#387074"/>
<stop offset="0.786458" stop-color="#C2DE95" stop-opacity="0.08"/>
</linearGradient>
<linearGradient id="paint39_linear_193_164" x1="476.14" y1="21" x2="476.14" y2="28.6872" gradientUnits="userSpaceOnUse">
<stop stop-color="#FEFEFE"/>
<stop offset="0.0642363" stop-color="#FBFFF0"/>
<stop offset="0.276042" stop-color="#FBFBF2"/>
<stop offset="0.588542" stop-color="#FFFAF4"/>
<stop offset="0.652778" stop-color="#F6F7ED"/>
</linearGradient>
</defs>
</svg>
