<svg width="1064" height="505" viewBox="0 0 1064 505" fill="none" xmlns="http://www.w3.org/2000/svg">
<g filter="url(#filter0_d_130_78)">
<path d="M573.721 270.414L895.141 336.01L704.913 500L370.374 427.844L573.721 270.414Z" fill="url(#paint0_radial_130_78)" shape-rendering="crispEdges"/>
</g>
<g filter="url(#filter1_d_130_78)">
<path d="M573.721 257.294L895.141 322.89L704.913 486.88L370.374 414.724L573.721 257.294Z" fill="url(#paint1_radial_130_78)" shape-rendering="crispEdges"/>
</g>
<g filter="url(#filter2_d_130_78)">
<path d="M614.805 337.669L707.213 356.411L652.523 403.265L556.343 382.649L614.805 337.669Z" fill="url(#paint2_radial_130_78)" shape-rendering="crispEdges"/>
</g>
<g filter="url(#filter3_d_130_78)">
<path d="M174.123 171.518L444.609 226.719L284.525 364.721L3 304L174.123 171.518Z" fill="url(#paint3_radial_130_78)" shape-rendering="crispEdges"/>
</g>
<g filter="url(#filter4_d_130_78)">
<path d="M174.123 160.478L444.609 215.679L284.525 353.681L3 292.96L174.123 160.478Z" fill="url(#paint4_radial_130_78)" shape-rendering="crispEdges"/>
</g>
<g filter="url(#filter5_d_130_78)">
<path d="M208.696 226.79L286.461 242.562L240.437 281.991L159.499 264.642L208.696 226.79Z" fill="url(#paint5_radial_130_78)" shape-rendering="crispEdges"/>
</g>
<g filter="url(#filter6_d_130_78)">
<path d="M890.549 162.035L1058.7 196.352L959.183 282.145L784.167 244.396L890.549 162.035Z" fill="url(#paint6_radial_130_78)" shape-rendering="crispEdges"/>
</g>
<g filter="url(#filter7_d_130_78)">
<path d="M890.549 155.172L1058.7 189.489L959.183 275.281L784.167 237.533L890.549 155.172Z" fill="url(#paint7_radial_130_78)" shape-rendering="crispEdges"/>
</g>
<g filter="url(#filter8_d_130_78)">
<path d="M912.043 198.047L960.387 207.852L931.775 232.364L881.458 221.579L912.043 198.047Z" fill="url(#paint8_radial_130_78)" shape-rendering="crispEdges"/>
</g>
<g filter="url(#filter9_d_130_78)">
<path d="M692.39 63.1299L809.366 87.0025L740.135 146.684L618.384 120.424L692.39 63.1299Z" fill="url(#paint9_radial_130_78)" shape-rendering="crispEdges"/>
</g>
<g filter="url(#filter10_d_130_78)">
<path d="M692.39 58.3555L809.366 82.2281L740.135 141.91L618.384 115.65L692.39 58.3555Z" fill="url(#paint10_radial_130_78)" shape-rendering="crispEdges"/>
</g>
<g filter="url(#filter11_d_130_78)">
<path d="M707.341 88.1807L740.972 95.0014L721.068 112.053L686.065 104.55L707.341 88.1807Z" fill="url(#paint11_radial_130_78)" shape-rendering="crispEdges"/>
</g>
<g filter="url(#filter12_d_130_78)">
<path d="M319.877 38.9248L428.73 61.1396L364.306 116.677L251.011 92.2404L319.877 38.9248Z" fill="url(#paint12_radial_130_78)" shape-rendering="crispEdges"/>
</g>
<g filter="url(#filter13_d_130_78)">
<path d="M319.877 34.4824L428.73 56.6973L364.306 112.234L251.011 87.798L319.877 34.4824Z" fill="url(#paint13_radial_130_78)" shape-rendering="crispEdges"/>
</g>
<g filter="url(#filter14_d_130_78)">
<path d="M333.79 62.2373L365.085 68.5844L346.564 84.4522L313.991 77.4703L333.79 62.2373Z" fill="url(#paint14_radial_130_78)" shape-rendering="crispEdges"/>
</g>
<path d="M222.496 254.642L210.436 233.753H234.556L222.496 254.642Z" fill="#E44F26" fill-opacity="0.67"/>
<path d="M571.033 323.083L557.256 160.146H708.691L694.896 323.057L632.881 341.18L571.033 323.083Z" fill="#1572B6"/>
<path d="M632.973 327.332L683.088 312.687L694.877 173.472H632.973V327.332Z" fill="#33A9DC"/>
<path d="M632.973 232.501H658.061L659.791 212.038H632.973V192.053H633.041H680.511L680.058 197.413L675.402 252.486H632.973V232.501Z" fill="white"/>
<path d="M633.09 284.4L633.004 284.426L611.891 278.413L610.541 262.476H600.279H591.508L594.164 293.853L632.998 305.219L633.09 305.193V284.4Z" fill="#EBEBEB"/>
<path d="M656.448 251.64L654.166 278.4L633.022 284.413V305.206L671.887 293.853L672.175 290.478L675.469 251.64H656.448Z" fill="white"/>
<path d="M633.041 192.053V204.467V211.986V212.038H587.306H587.245L586.864 207.544L586 197.413L585.546 192.053H633.041Z" fill="#EBEBEB"/>
<path d="M632.973 232.501V244.915V252.434V252.486H612.185H612.124L611.744 247.992L610.885 237.861L610.431 232.501H632.973Z" fill="#EBEBEB"/>
<path d="M957.824 117.789H882.393V188.578H957.824V117.789Z" fill="#F5DE19"/>
<path d="M933.064 173.093C933.706 174.318 934.705 175.348 935.944 176.064C937.183 176.779 938.613 177.152 940.068 177.138C943.004 177.138 944.882 175.76 944.882 173.852C944.882 171.576 942.953 170.762 939.72 169.435L937.948 168.722C932.829 166.677 929.435 164.116 929.435 158.7C929.435 153.712 933.476 149.912 939.815 149.912C941.867 149.773 943.917 150.204 945.71 151.151C947.502 152.099 948.958 153.52 949.895 155.239L944.354 158.564C943.993 157.712 943.365 156.982 942.552 156.473C941.739 155.964 940.781 155.698 939.804 155.712C939.378 155.672 938.947 155.716 938.54 155.84C938.132 155.965 937.757 156.168 937.438 156.436C937.119 156.705 936.863 157.032 936.686 157.399C936.51 157.765 936.416 158.162 936.412 158.564C936.412 160.558 937.73 161.367 940.771 162.609L942.544 163.322C948.567 165.746 951.972 168.216 951.972 173.771C951.972 179.76 946.959 183.042 940.227 183.042C937.604 183.198 934.988 182.64 932.696 181.432C930.404 180.225 928.533 178.421 927.309 176.238L933.064 173.093ZM908.023 173.67C909.136 175.523 910.149 177.09 912.584 177.09C914.912 177.09 916.383 176.236 916.383 172.911V150.291H923.47V173C923.47 179.886 919.16 183.021 912.886 183.021C910.668 183.135 908.465 182.616 906.568 181.533C904.67 180.45 903.166 178.854 902.253 176.954L908.023 173.67Z" fill="black"/>
<path d="M920.108 214.854L909.197 195.955H931.02L920.108 214.854Z" fill="#F5DE19"/>
<path d="M339.87 72.9443L332.979 61.008H346.762L339.87 72.9443Z" fill="#61DAFB" fill-opacity="0.67"/>
<path d="M632.31 370.026L620.25 349.138H644.37L632.31 370.026Z" fill="#1572B6" fill-opacity="0.67"/>
<path d="M733.056 42.4287H746.286L713.212 99.4807L680.138 42.4287H705.44L713.212 55.6581L720.819 42.4287H733.056Z" fill="#41B883"/>
<path d="M680.138 42.4287L713.212 99.4807L746.286 42.4287H733.056L713.212 76.6599L693.202 42.4287H680.138Z" fill="#41B883"/>
<path d="M693.202 42.4287L713.212 76.8252L733.056 42.4287H720.819L713.212 55.6581L705.44 42.4287H693.202Z" fill="#35495E"/>
<g clip-path="url(#clip0_130_78)">
<path d="M339.206 36.7185C342.273 36.7185 344.758 34.233 344.758 31.1669C344.758 28.1008 342.273 25.6152 339.206 25.6152C336.14 25.6152 333.655 28.1008 333.655 31.1669C333.655 34.233 336.14 36.7185 339.206 36.7185Z" fill="#61DAFB"/>
<path d="M360.293 22.0115C359.222 21.6219 358.102 21.2323 356.933 20.8914C357.225 19.7227 357.468 18.5539 357.663 17.4338C358.686 11.0056 357.566 6.47666 354.449 4.72351C353.524 4.18783 352.501 3.94434 351.332 3.94434C347.924 3.94434 343.589 6.47666 339.207 10.7134C334.824 6.47666 330.489 3.94434 327.081 3.94434C325.912 3.94434 324.889 4.18783 323.964 4.72351C320.847 6.52536 319.727 11.0543 320.75 17.4338C320.945 18.5539 321.188 19.7227 321.48 20.8914C320.311 21.2323 319.191 21.5732 318.12 22.0115C312.033 24.349 308.721 27.5632 308.721 31.1668C308.721 34.7705 312.081 37.9847 318.12 40.3222C319.191 40.7118 320.311 41.1014 321.48 41.4422C321.188 42.611 320.945 43.7798 320.75 44.8998C319.727 51.3281 320.847 55.857 323.964 57.6102C324.889 58.1459 325.912 58.3894 327.081 58.3894C330.538 58.3894 334.872 55.857 339.207 51.6203C343.589 55.857 347.924 58.3894 351.332 58.3894C352.501 58.3894 353.524 58.1459 354.449 57.6102C357.566 55.8083 358.686 51.2794 357.663 44.8998C357.468 43.7798 357.225 42.611 356.933 41.4422C358.102 41.1014 359.222 40.7605 360.293 40.3222C366.38 37.9847 369.692 34.7705 369.692 31.1668C369.692 27.5632 366.38 24.349 360.293 22.0115ZM353.086 7.15844C355.082 8.32721 355.764 11.9309 354.936 17.0443C354.79 18.0669 354.547 19.1383 354.254 20.2584C351.722 19.674 349.044 19.2844 346.219 19.0409C344.563 16.7034 342.859 14.6093 341.154 12.7101C344.758 9.15509 348.411 6.72016 351.381 6.72016C352.014 6.72016 352.599 6.86625 353.086 7.15844ZM347.631 36.0367C346.755 37.5951 345.732 39.1534 344.661 40.7118C342.859 40.8579 341.057 40.9066 339.207 40.9066C337.307 40.9066 335.505 40.8579 333.752 40.7118C332.681 39.1534 331.707 37.5951 330.83 36.0367C329.905 34.4297 329.029 32.7739 328.249 31.1668C329.029 29.5598 329.905 27.904 330.83 26.297C331.707 24.7386 332.73 23.1803 333.801 21.6219C335.603 21.4758 337.405 21.4271 339.255 21.4271C341.154 21.4271 342.956 21.4758 344.709 21.6219C345.781 23.1803 346.755 24.7386 347.631 26.297C348.557 27.904 349.433 29.5598 350.212 31.1668C349.385 32.7739 348.557 34.381 347.631 36.0367ZM351.673 34.4297C352.404 36.1341 352.988 37.7899 353.524 39.4456C351.868 39.8352 350.115 40.1274 348.264 40.3709C348.849 39.4456 349.482 38.4716 350.018 37.449C350.602 36.4263 351.138 35.4036 351.673 34.4297ZM339.207 47.627C338.038 46.3608 336.918 44.9972 335.846 43.585C336.966 43.6337 338.086 43.6824 339.207 43.6824C340.327 43.6824 341.447 43.6337 342.567 43.585C341.495 44.9972 340.375 46.3608 339.207 47.627ZM330.149 40.3222C328.298 40.0787 326.545 39.7865 324.889 39.3969C325.425 37.7899 326.009 36.0854 326.74 34.381C327.275 35.3549 327.811 36.3776 328.395 37.3516C328.98 38.4229 329.564 39.3482 330.149 40.3222ZM326.74 27.904C326.009 26.1996 325.425 24.5438 324.889 22.8881C326.545 22.4985 328.298 22.2063 330.149 21.9628C329.564 22.8881 328.931 23.8621 328.395 24.8847C327.811 25.9074 327.275 26.9301 326.74 27.904ZM339.207 14.7067C340.375 15.9729 341.495 17.3364 342.567 18.7487C341.447 18.7 340.327 18.6513 339.207 18.6513C338.086 18.6513 336.966 18.7 335.846 18.7487C336.918 17.3364 338.038 15.9729 339.207 14.7067ZM350.018 24.9334L348.264 22.0115C350.115 22.255 351.868 22.5472 353.524 22.9368C352.988 24.5438 352.404 26.2483 351.673 27.9527C351.138 26.9301 350.602 25.9074 350.018 24.9334ZM323.477 17.0443C322.649 11.9309 323.331 8.32721 325.327 7.15844C325.814 6.86625 326.399 6.72016 327.032 6.72016C329.954 6.72016 333.606 9.10639 337.259 12.7101C335.554 14.5606 333.85 16.7034 332.194 19.0409C329.369 19.2844 326.691 19.7227 324.159 20.2584C323.866 19.1383 323.672 18.0669 323.477 17.0443ZM311.448 31.1668C311.448 28.878 314.224 26.4431 319.094 24.6412C320.068 24.2516 321.139 23.9108 322.211 23.6186C322.99 26.0535 323.964 28.6345 325.133 31.2155C323.964 33.7966 322.941 36.3289 322.211 38.7638C315.49 36.8159 311.448 33.894 311.448 31.1668ZM325.327 55.1753C323.331 54.0065 322.649 50.4028 323.477 45.2894C323.623 44.2668 323.866 43.1954 324.159 42.0753C326.691 42.6597 329.369 43.0493 332.194 43.2928C333.85 45.6303 335.554 47.7244 337.259 49.6236C333.655 53.1786 330.002 55.6135 327.032 55.6135C326.399 55.6135 325.814 55.4674 325.327 55.1753ZM354.936 45.2894C355.764 50.4028 355.082 54.0065 353.086 55.1753C352.599 55.4674 352.014 55.6135 351.381 55.6135C348.459 55.6135 344.807 53.2273 341.154 49.6236C342.859 47.7731 344.563 45.6303 346.219 43.2928C349.044 43.0493 351.722 42.611 354.254 42.0753C354.547 43.1954 354.741 44.2668 354.936 45.2894ZM359.319 37.6925C358.345 38.0821 357.274 38.4229 356.202 38.7151C355.423 36.2802 354.449 33.6992 353.28 31.1182C354.449 28.5371 355.472 26.0048 356.202 23.5699C362.923 25.5178 366.965 28.4397 366.965 31.1668C366.965 33.4557 364.14 35.8906 359.319 37.6925Z" fill="#61DAFB"/>
</g>
<path d="M676.077 346.154L882.31 220.822L903.53 230.769L709.896 370.026L676.077 346.154Z" fill="#D9D9D9"/>
<path d="M741.063 102.122L895.572 201.592L882.31 210.212L729.79 108.753L741.063 102.122Z" fill="#D9D9D9"/>
<path d="M341.196 84.8811L277.536 240.717L217.854 229.443L319.976 81.5654L341.196 84.8811Z" fill="#D9D9D9"/>
<path d="M688.676 104.112L361.09 76.9233L364.405 70.292L688.676 95.4909V104.112Z" fill="#D9D9D9"/>
<path d="M182.981 218.306L174.041 118.037H272.277L263.325 218.29L223.099 229.443L182.981 218.306Z" fill="#E44F26"/>
<path d="M223.159 220.92L255.666 211.908L263.313 126.237H223.159V220.92Z" fill="#F1662A"/>
<path d="M223.159 163.422H206.886L205.764 150.83H223.159V138.531H223.115H192.323L192.618 141.834L195.638 175.721H223.159V163.422Z" fill="#EBEBEB"/>
<path d="M223.159 195.36L223.103 195.376L209.408 191.68L208.533 181.872H201.877H196.187L197.91 201.177L223.103 208.172L223.159 208.156V195.36Z" fill="#EBEBEB"/>
<path d="M223.115 163.423V175.721H238.258L236.834 191.672L223.115 195.372V208.168L248.329 201.177L248.512 199.101L251.4 166.725L251.703 163.423H248.388H223.115Z" fill="white"/>
<path d="M223.115 138.531V146.171V150.802V150.83H252.781H252.821L253.067 148.068L253.628 141.834L253.923 138.531H223.115Z" fill="white"/>
<path d="M288.809 259.947L601.806 341.512L554.724 375.332L270.241 277.189L288.809 259.947Z" fill="#D9D9D9"/>
<defs>
<filter id="filter0_d_130_78" x="367.374" y="267.414" width="532.767" height="237.586" filterUnits="userSpaceOnUse" color-interpolation-filters="sRGB">
<feFlood flood-opacity="0" result="BackgroundImageFix"/>
<feColorMatrix in="SourceAlpha" type="matrix" values="0 0 0 0 0 0 0 0 0 0 0 0 0 0 0 0 0 0 127 0" result="hardAlpha"/>
<feOffset dx="1" dy="1"/>
<feGaussianBlur stdDeviation="2"/>
<feComposite in2="hardAlpha" operator="out"/>
<feColorMatrix type="matrix" values="0 0 0 0 0 0 0 0 0 0 0 0 0 0 0 0 0 0 1 0"/>
<feBlend mode="normal" in2="BackgroundImageFix" result="effect1_dropShadow_130_78"/>
<feBlend mode="normal" in="SourceGraphic" in2="effect1_dropShadow_130_78" result="shape"/>
</filter>
<filter id="filter1_d_130_78" x="367.374" y="254.294" width="532.767" height="237.586" filterUnits="userSpaceOnUse" color-interpolation-filters="sRGB">
<feFlood flood-opacity="0" result="BackgroundImageFix"/>
<feColorMatrix in="SourceAlpha" type="matrix" values="0 0 0 0 0 0 0 0 0 0 0 0 0 0 0 0 0 0 127 0" result="hardAlpha"/>
<feOffset dx="1" dy="1"/>
<feGaussianBlur stdDeviation="2"/>
<feComposite in2="hardAlpha" operator="out"/>
<feColorMatrix type="matrix" values="0 0 0 0 0 0 0 0 0 0 0 0 0 0 0 0 0 0 1 0"/>
<feBlend mode="normal" in2="BackgroundImageFix" result="effect1_dropShadow_130_78"/>
<feBlend mode="normal" in="SourceGraphic" in2="effect1_dropShadow_130_78" result="shape"/>
</filter>
<filter id="filter2_d_130_78" x="553.343" y="334.669" width="158.871" height="73.5957" filterUnits="userSpaceOnUse" color-interpolation-filters="sRGB">
<feFlood flood-opacity="0" result="BackgroundImageFix"/>
<feColorMatrix in="SourceAlpha" type="matrix" values="0 0 0 0 0 0 0 0 0 0 0 0 0 0 0 0 0 0 127 0" result="hardAlpha"/>
<feOffset dx="1" dy="1"/>
<feGaussianBlur stdDeviation="2"/>
<feComposite in2="hardAlpha" operator="out"/>
<feColorMatrix type="matrix" values="0 0 0 0 0 0 0 0 0 0 0 0 0 0 0 0 0 0 1 0"/>
<feBlend mode="normal" in2="BackgroundImageFix" result="effect1_dropShadow_130_78"/>
<feBlend mode="normal" in="SourceGraphic" in2="effect1_dropShadow_130_78" result="shape"/>
</filter>
<filter id="filter3_d_130_78" x="0" y="168.518" width="449.608" height="201.204" filterUnits="userSpaceOnUse" color-interpolation-filters="sRGB">
<feFlood flood-opacity="0" result="BackgroundImageFix"/>
<feColorMatrix in="SourceAlpha" type="matrix" values="0 0 0 0 0 0 0 0 0 0 0 0 0 0 0 0 0 0 127 0" result="hardAlpha"/>
<feOffset dx="1" dy="1"/>
<feGaussianBlur stdDeviation="2"/>
<feComposite in2="hardAlpha" operator="out"/>
<feColorMatrix type="matrix" values="0 0 0 0 0 0 0 0 0 0 0 0 0 0 0 0 0 0 1 0"/>
<feBlend mode="normal" in2="BackgroundImageFix" result="effect1_dropShadow_130_78"/>
<feBlend mode="normal" in="SourceGraphic" in2="effect1_dropShadow_130_78" result="shape"/>
</filter>
<filter id="filter4_d_130_78" x="0" y="157.478" width="449.608" height="201.204" filterUnits="userSpaceOnUse" color-interpolation-filters="sRGB">
<feFlood flood-opacity="0" result="BackgroundImageFix"/>
<feColorMatrix in="SourceAlpha" type="matrix" values="0 0 0 0 0 0 0 0 0 0 0 0 0 0 0 0 0 0 127 0" result="hardAlpha"/>
<feOffset dx="1" dy="1"/>
<feGaussianBlur stdDeviation="2"/>
<feComposite in2="hardAlpha" operator="out"/>
<feColorMatrix type="matrix" values="0 0 0 0 0 0 0 0 0 0 0 0 0 0 0 0 0 0 1 0"/>
<feBlend mode="normal" in2="BackgroundImageFix" result="effect1_dropShadow_130_78"/>
<feBlend mode="normal" in="SourceGraphic" in2="effect1_dropShadow_130_78" result="shape"/>
</filter>
<filter id="filter5_d_130_78" x="156.499" y="223.79" width="134.962" height="63.2012" filterUnits="userSpaceOnUse" color-interpolation-filters="sRGB">
<feFlood flood-opacity="0" result="BackgroundImageFix"/>
<feColorMatrix in="SourceAlpha" type="matrix" values="0 0 0 0 0 0 0 0 0 0 0 0 0 0 0 0 0 0 127 0" result="hardAlpha"/>
<feOffset dx="1" dy="1"/>
<feGaussianBlur stdDeviation="2"/>
<feComposite in2="hardAlpha" operator="out"/>
<feColorMatrix type="matrix" values="0 0 0 0 0 0 0 0 0 0 0 0 0 0 0 0 0 0 1 0"/>
<feBlend mode="normal" in2="BackgroundImageFix" result="effect1_dropShadow_130_78"/>
<feBlend mode="normal" in="SourceGraphic" in2="effect1_dropShadow_130_78" result="shape"/>
</filter>
<filter id="filter6_d_130_78" x="781.167" y="159.035" width="282.536" height="128.109" filterUnits="userSpaceOnUse" color-interpolation-filters="sRGB">
<feFlood flood-opacity="0" result="BackgroundImageFix"/>
<feColorMatrix in="SourceAlpha" type="matrix" values="0 0 0 0 0 0 0 0 0 0 0 0 0 0 0 0 0 0 127 0" result="hardAlpha"/>
<feOffset dx="1" dy="1"/>
<feGaussianBlur stdDeviation="2"/>
<feComposite in2="hardAlpha" operator="out"/>
<feColorMatrix type="matrix" values="0 0 0 0 0 0 0 0 0 0 0 0 0 0 0 0 0 0 1 0"/>
<feBlend mode="normal" in2="BackgroundImageFix" result="effect1_dropShadow_130_78"/>
<feBlend mode="normal" in="SourceGraphic" in2="effect1_dropShadow_130_78" result="shape"/>
</filter>
<filter id="filter7_d_130_78" x="781.167" y="152.172" width="282.536" height="128.109" filterUnits="userSpaceOnUse" color-interpolation-filters="sRGB">
<feFlood flood-opacity="0" result="BackgroundImageFix"/>
<feColorMatrix in="SourceAlpha" type="matrix" values="0 0 0 0 0 0 0 0 0 0 0 0 0 0 0 0 0 0 127 0" result="hardAlpha"/>
<feOffset dx="1" dy="1"/>
<feGaussianBlur stdDeviation="2"/>
<feComposite in2="hardAlpha" operator="out"/>
<feColorMatrix type="matrix" values="0 0 0 0 0 0 0 0 0 0 0 0 0 0 0 0 0 0 1 0"/>
<feBlend mode="normal" in2="BackgroundImageFix" result="effect1_dropShadow_130_78"/>
<feBlend mode="normal" in="SourceGraphic" in2="effect1_dropShadow_130_78" result="shape"/>
</filter>
<filter id="filter8_d_130_78" x="878.458" y="195.047" width="86.929" height="42.3174" filterUnits="userSpaceOnUse" color-interpolation-filters="sRGB">
<feFlood flood-opacity="0" result="BackgroundImageFix"/>
<feColorMatrix in="SourceAlpha" type="matrix" values="0 0 0 0 0 0 0 0 0 0 0 0 0 0 0 0 0 0 127 0" result="hardAlpha"/>
<feOffset dx="1" dy="1"/>
<feGaussianBlur stdDeviation="2"/>
<feComposite in2="hardAlpha" operator="out"/>
<feColorMatrix type="matrix" values="0 0 0 0 0 0 0 0 0 0 0 0 0 0 0 0 0 0 1 0"/>
<feBlend mode="normal" in2="BackgroundImageFix" result="effect1_dropShadow_130_78"/>
<feBlend mode="normal" in="SourceGraphic" in2="effect1_dropShadow_130_78" result="shape"/>
</filter>
<filter id="filter9_d_130_78" x="615.384" y="60.1299" width="198.981" height="91.5547" filterUnits="userSpaceOnUse" color-interpolation-filters="sRGB">
<feFlood flood-opacity="0" result="BackgroundImageFix"/>
<feColorMatrix in="SourceAlpha" type="matrix" values="0 0 0 0 0 0 0 0 0 0 0 0 0 0 0 0 0 0 127 0" result="hardAlpha"/>
<feOffset dx="1" dy="1"/>
<feGaussianBlur stdDeviation="2"/>
<feComposite in2="hardAlpha" operator="out"/>
<feColorMatrix type="matrix" values="0 0 0 0 0 0 0 0 0 0 0 0 0 0 0 0 0 0 1 0"/>
<feBlend mode="normal" in2="BackgroundImageFix" result="effect1_dropShadow_130_78"/>
<feBlend mode="normal" in="SourceGraphic" in2="effect1_dropShadow_130_78" result="shape"/>
</filter>
<filter id="filter10_d_130_78" x="615.384" y="55.3555" width="198.981" height="91.5547" filterUnits="userSpaceOnUse" color-interpolation-filters="sRGB">
<feFlood flood-opacity="0" result="BackgroundImageFix"/>
<feColorMatrix in="SourceAlpha" type="matrix" values="0 0 0 0 0 0 0 0 0 0 0 0 0 0 0 0 0 0 127 0" result="hardAlpha"/>
<feOffset dx="1" dy="1"/>
<feGaussianBlur stdDeviation="2"/>
<feComposite in2="hardAlpha" operator="out"/>
<feColorMatrix type="matrix" values="0 0 0 0 0 0 0 0 0 0 0 0 0 0 0 0 0 0 1 0"/>
<feBlend mode="normal" in2="BackgroundImageFix" result="effect1_dropShadow_130_78"/>
<feBlend mode="normal" in="SourceGraphic" in2="effect1_dropShadow_130_78" result="shape"/>
</filter>
<filter id="filter11_d_130_78" x="683.065" y="85.1807" width="62.9072" height="31.873" filterUnits="userSpaceOnUse" color-interpolation-filters="sRGB">
<feFlood flood-opacity="0" result="BackgroundImageFix"/>
<feColorMatrix in="SourceAlpha" type="matrix" values="0 0 0 0 0 0 0 0 0 0 0 0 0 0 0 0 0 0 127 0" result="hardAlpha"/>
<feOffset dx="1" dy="1"/>
<feGaussianBlur stdDeviation="2"/>
<feComposite in2="hardAlpha" operator="out"/>
<feColorMatrix type="matrix" values="0 0 0 0 0 0 0 0 0 0 0 0 0 0 0 0 0 0 1 0"/>
<feBlend mode="normal" in2="BackgroundImageFix" result="effect1_dropShadow_130_78"/>
<feBlend mode="normal" in="SourceGraphic" in2="effect1_dropShadow_130_78" result="shape"/>
</filter>
<filter id="filter12_d_130_78" x="248.011" y="35.9248" width="185.719" height="85.752" filterUnits="userSpaceOnUse" color-interpolation-filters="sRGB">
<feFlood flood-opacity="0" result="BackgroundImageFix"/>
<feColorMatrix in="SourceAlpha" type="matrix" values="0 0 0 0 0 0 0 0 0 0 0 0 0 0 0 0 0 0 127 0" result="hardAlpha"/>
<feOffset dx="1" dy="1"/>
<feGaussianBlur stdDeviation="2"/>
<feComposite in2="hardAlpha" operator="out"/>
<feColorMatrix type="matrix" values="0 0 0 0 0 0 0 0 0 0 0 0 0 0 0 0 0 0 1 0"/>
<feBlend mode="normal" in2="BackgroundImageFix" result="effect1_dropShadow_130_78"/>
<feBlend mode="normal" in="SourceGraphic" in2="effect1_dropShadow_130_78" result="shape"/>
</filter>
<filter id="filter13_d_130_78" x="248.011" y="31.4824" width="185.719" height="85.752" filterUnits="userSpaceOnUse" color-interpolation-filters="sRGB">
<feFlood flood-opacity="0" result="BackgroundImageFix"/>
<feColorMatrix in="SourceAlpha" type="matrix" values="0 0 0 0 0 0 0 0 0 0 0 0 0 0 0 0 0 0 127 0" result="hardAlpha"/>
<feOffset dx="1" dy="1"/>
<feGaussianBlur stdDeviation="2"/>
<feComposite in2="hardAlpha" operator="out"/>
<feColorMatrix type="matrix" values="0 0 0 0 0 0 0 0 0 0 0 0 0 0 0 0 0 0 1 0"/>
<feBlend mode="normal" in2="BackgroundImageFix" result="effect1_dropShadow_130_78"/>
<feBlend mode="normal" in="SourceGraphic" in2="effect1_dropShadow_130_78" result="shape"/>
</filter>
<filter id="filter14_d_130_78" x="310.991" y="59.2373" width="59.0942" height="30.2148" filterUnits="userSpaceOnUse" color-interpolation-filters="sRGB">
<feFlood flood-opacity="0" result="BackgroundImageFix"/>
<feColorMatrix in="SourceAlpha" type="matrix" values="0 0 0 0 0 0 0 0 0 0 0 0 0 0 0 0 0 0 127 0" result="hardAlpha"/>
<feOffset dx="1" dy="1"/>
<feGaussianBlur stdDeviation="2"/>
<feComposite in2="hardAlpha" operator="out"/>
<feColorMatrix type="matrix" values="0 0 0 0 0 0 0 0 0 0 0 0 0 0 0 0 0 0 1 0"/>
<feBlend mode="normal" in2="BackgroundImageFix" result="effect1_dropShadow_130_78"/>
<feBlend mode="normal" in="SourceGraphic" in2="effect1_dropShadow_130_78" result="shape"/>
</filter>
<radialGradient id="paint0_radial_130_78" cx="0" cy="0" r="1" gradientUnits="userSpaceOnUse" gradientTransform="translate(632.758 385.207) rotate(90) scale(114.793 262.383)">
<stop offset="0.296875" stop-color="#020202"/>
<stop offset="0.296975" stop-color="#D9D9D9" stop-opacity="0"/>
</radialGradient>
<radialGradient id="paint1_radial_130_78" cx="0" cy="0" r="1" gradientUnits="userSpaceOnUse" gradientTransform="translate(632.758 372.087) rotate(90) scale(114.793 262.383)">
<stop offset="0.296875" stop-color="#D9D9D9"/>
<stop offset="0.296975" stop-color="#D9D9D9" stop-opacity="0"/>
</radialGradient>
<radialGradient id="paint2_radial_130_78" cx="0" cy="0" r="1" gradientUnits="userSpaceOnUse" gradientTransform="translate(631.778 370.467) rotate(90) scale(32.7979 75.4352)">
<stop offset="0.296875" stop-color="#B1CF81"/>
<stop offset="0.296975" stop-color="#D9D9D9" stop-opacity="0"/>
</radialGradient>
<radialGradient id="paint3_radial_130_78" cx="0" cy="0" r="1" gradientUnits="userSpaceOnUse" gradientTransform="translate(223.804 268.119) rotate(90) scale(96.6019 220.804)">
<stop offset="0.296875"/>
<stop offset="0.296975" stop-color="#D9D9D9" stop-opacity="0"/>
</radialGradient>
<radialGradient id="paint4_radial_130_78" cx="0" cy="0" r="1" gradientUnits="userSpaceOnUse" gradientTransform="translate(223.804 257.079) rotate(90) scale(96.6019 220.804)">
<stop offset="0.296875" stop-color="#D9D9D9"/>
<stop offset="0.296975" stop-color="#D9D9D9" stop-opacity="0"/>
</radialGradient>
<radialGradient id="paint5_radial_130_78" cx="0" cy="0" r="1" gradientUnits="userSpaceOnUse" gradientTransform="translate(222.98 254.391) rotate(90) scale(27.6005 63.4812)">
<stop offset="0.296875" stop-color="#B1CF81"/>
<stop offset="0.296975" stop-color="#D9D9D9" stop-opacity="0"/>
</radialGradient>
<radialGradient id="paint6_radial_130_78" cx="0" cy="0" r="1" gradientUnits="userSpaceOnUse" gradientTransform="translate(921.435 222.09) rotate(90) scale(60.0547 137.268)">
<stop offset="0.296875"/>
<stop offset="0.296975" stop-color="#D9D9D9" stop-opacity="0"/>
</radialGradient>
<radialGradient id="paint7_radial_130_78" cx="0" cy="0" r="1" gradientUnits="userSpaceOnUse" gradientTransform="translate(921.435 215.227) rotate(90) scale(60.0547 137.268)">
<stop offset="0.296875" stop-color="#D9D9D9"/>
<stop offset="0.296975" stop-color="#D9D9D9" stop-opacity="0"/>
</radialGradient>
<radialGradient id="paint8_radial_130_78" cx="0" cy="0" r="1" gradientUnits="userSpaceOnUse" gradientTransform="translate(920.922 215.205) rotate(90) scale(17.1585 39.4645)">
<stop offset="0.296875" stop-color="#B1CF81" stop-opacity="0.76"/>
<stop offset="0.296975" stop-color="#D9D9D9" stop-opacity="0"/>
</radialGradient>
<radialGradient id="paint9_radial_130_78" cx="0" cy="0" r="1" gradientUnits="userSpaceOnUse" gradientTransform="translate(713.875 104.907) rotate(90) scale(41.7772 95.4907)">
<stop offset="0.296875"/>
<stop offset="0.296975" stop-color="#D9D9D9" stop-opacity="0"/>
</radialGradient>
<radialGradient id="paint10_radial_130_78" cx="0" cy="0" r="1" gradientUnits="userSpaceOnUse" gradientTransform="translate(713.875 100.133) rotate(90) scale(41.7772 95.4907)">
<stop offset="0.296875" stop-color="#D9D9D9"/>
<stop offset="0.296975" stop-color="#D9D9D9" stop-opacity="0"/>
</radialGradient>
<radialGradient id="paint11_radial_130_78" cx="0" cy="0" r="1" gradientUnits="userSpaceOnUse" gradientTransform="translate(713.519 100.117) rotate(90) scale(11.9363 27.4536)">
<stop offset="0.296875" stop-color="#B1CF81" stop-opacity="0.76"/>
<stop offset="0.296975" stop-color="#D9D9D9" stop-opacity="0"/>
</radialGradient>
<radialGradient id="paint12_radial_130_78" cx="0" cy="0" r="1" gradientUnits="userSpaceOnUse" gradientTransform="translate(339.87 77.8008) rotate(90) scale(38.876 88.8594)">
<stop offset="0.296875"/>
<stop offset="0.296975" stop-color="#D9D9D9" stop-opacity="0"/>
</radialGradient>
<radialGradient id="paint13_radial_130_78" cx="0" cy="0" r="1" gradientUnits="userSpaceOnUse" gradientTransform="translate(339.87 73.3584) rotate(90) scale(38.876 88.8594)">
<stop offset="0.296875" stop-color="#D9D9D9"/>
<stop offset="0.296975" stop-color="#D9D9D9" stop-opacity="0"/>
</radialGradient>
<radialGradient id="paint14_radial_130_78" cx="0" cy="0" r="1" gradientUnits="userSpaceOnUse" gradientTransform="translate(339.538 73.3447) rotate(90) scale(11.1074 25.5471)">
<stop offset="0.296875" stop-color="#B1CF81" stop-opacity="0.76"/>
<stop offset="0.296975" stop-color="#D9D9D9" stop-opacity="0"/>
</radialGradient>
<clipPath id="clip0_130_78">
<rect width="62.3342" height="62.3342" fill="white" transform="translate(308.04)"/>
</clipPath>
</defs>
</svg>
