<svg class='resultCertifi' width="107" height="166" viewBox="0 0 107 166" fill="none" xmlns="http://www.w3.org/2000/svg">
<path d="M52.8591 152.403L33.1777 164.833V108.124H73.0745V164.833L53.3931 152.403L53.1261 152.234L52.8591 152.403Z" fill="#81A2C9" stroke="#F3F096"/>
<path d="M0.5 30.9612L53.1264 0.57735L105.753 30.9612L105.753 39.8205L105.753 91.7289L53.1264 122.113L0.5 91.7289V30.9612Z" fill="#81A2C9" stroke="#7C868E"/>
<line x1="0.891602" y1="34.4404" x2="0.891602" y2="88.2519" stroke="#F3F096"/>
<path d="M104.88 33.6406V88.2599" stroke="#F3F096"/>
<path d="M50.4105 3.09242L3.61874 30.1336" stroke="#F3F096"/>
<path d="M56.355 3.22886L102.633 30.1342" stroke="#F3F096"/>
<path d="M49.9737 119.597L3.18198 92.5558" stroke="#F3F096"/>
<path d="M56.3542 119.46L102.629 92.5581" stroke="#F3F096"/>
<g filter="url(#filter0_d_200_15)">
<path d="M21.1111 90.9093C21.1111 91.1546 20.8977 91.2773 20.4711 91.2773C20.0444 91.2773 19.8311 91.1546 19.8311 90.9093V87.2453C19.2871 87.1599 18.8817 86.9466 18.6151 86.6053C18.3484 86.2639 18.1297 85.7573 17.9591 85.0853L16.7111 80.1573C16.6151 79.8159 16.5671 79.6186 16.5671 79.5653C16.5671 79.3733 16.7644 79.2773 17.1591 79.2773C17.5644 79.2773 17.7937 79.3999 17.8471 79.6453L19.2071 84.9093C19.3244 85.3573 19.4631 85.6773 19.6231 85.8693C19.7937 86.0613 20.0764 86.1573 20.4711 86.1573C20.8657 86.1573 21.1431 86.0613 21.3031 85.8693C21.4737 85.6773 21.6177 85.3573 21.7351 84.9093L23.0951 79.6453C23.1484 79.3999 23.3724 79.2773 23.7671 79.2773C24.1724 79.2773 24.3751 79.3733 24.3751 79.5653C24.3751 79.6186 24.3271 79.8159 24.2311 80.1573L22.9831 85.0853C22.8124 85.7573 22.5937 86.2639 22.3271 86.6053C22.0604 86.9466 21.6551 87.1599 21.1111 87.2453V90.9093ZM31.5634 89.0693V83.7253C31.5634 82.8933 30.8328 82.4773 29.3714 82.4773C27.9208 82.4773 27.1954 82.8933 27.1954 83.7253V89.0693C27.1954 89.9013 27.9208 90.3173 29.3714 90.3173C30.8328 90.3173 31.5634 89.9013 31.5634 89.0693ZM32.8434 83.8853V88.9093C32.8434 89.7946 32.5288 90.4399 31.8994 90.8453C31.2701 91.2399 30.4328 91.4373 29.3874 91.4373C28.3421 91.4373 27.4994 91.2399 26.8594 90.8453C26.2301 90.4399 25.9154 89.7946 25.9154 88.9093V83.8853C25.9154 82.9999 26.2301 82.3599 26.8594 81.9653C27.4888 81.5599 28.3261 81.3573 29.3714 81.3573C30.4168 81.3573 31.2541 81.5599 31.8834 81.9653C32.5234 82.3599 32.8434 82.9999 32.8434 83.8853ZM43.1284 81.8853V88.9093C43.1284 89.7946 42.8084 90.4399 42.1684 90.8453C41.5391 91.2399 40.7018 91.4373 39.6564 91.4373C38.6111 91.4373 37.7738 91.2399 37.1444 90.8453C36.5151 90.4399 36.2004 89.7946 36.2004 88.9093V81.8853C36.2004 81.6399 36.4138 81.5173 36.8404 81.5173C37.2671 81.5173 37.4804 81.6399 37.4804 81.8853V89.0693C37.4804 89.9013 38.2058 90.3173 39.6564 90.3173C41.1178 90.3173 41.8484 89.9013 41.8484 89.0693V81.8853C41.8484 81.6399 42.0618 81.5173 42.4884 81.5173C42.9151 81.5173 43.1284 81.6399 43.1284 81.8853ZM50.9096 84.5253V83.7253C50.9096 82.8933 50.4136 82.4773 49.4216 82.4773C48.4296 82.4773 47.9336 82.8933 47.9336 83.7253V91.0693C47.9336 91.3146 47.7202 91.4373 47.2936 91.4373C46.8669 91.4373 46.6536 91.3146 46.6536 91.0693V83.8853C46.6536 82.9999 46.9042 82.3599 47.4056 81.9653C47.9176 81.5599 48.5896 81.3573 49.4216 81.3573C51.2669 81.3573 52.1896 82.1893 52.1896 83.8533V84.5253C52.1896 84.7706 51.9762 84.8933 51.5496 84.8933C51.1229 84.8933 50.9096 84.7706 50.9096 84.5253ZM56.7909 90.0773H59.3829C59.5963 90.0773 59.7029 90.2639 59.7029 90.6373C59.7029 91.0106 59.5963 91.1973 59.3829 91.1973H56.7909C55.8736 91.1973 55.2229 90.9786 54.8389 90.5413C54.4549 90.0933 54.2629 89.3733 54.2629 88.3813V79.6453C54.2629 79.3999 54.4763 79.2773 54.9029 79.2773C55.3296 79.2773 55.5429 79.3999 55.5429 79.6453V88.3813C55.5429 88.9999 55.6336 89.4373 55.8149 89.6933C56.0069 89.9493 56.3323 90.0773 56.7909 90.0773ZM68.4703 83.8533V84.3333C68.4703 85.2399 68.2836 85.8639 67.9103 86.2053C67.537 86.5466 66.8543 86.7653 65.8623 86.8613L62.7423 87.1653V89.0693C62.7423 89.9013 63.4356 90.3173 64.8223 90.3173C66.401 90.3173 67.1903 89.9546 67.1903 89.2293V88.6213C67.1903 88.3759 67.4036 88.2533 67.8303 88.2533C68.257 88.2533 68.4703 88.3759 68.4703 88.6213V89.0693C68.4703 90.6479 67.297 91.4373 64.9503 91.4373C63.9156 91.4373 63.073 91.2346 62.4223 90.8293C61.7823 90.4239 61.4623 89.7839 61.4623 88.9093V83.8853C61.4623 82.9999 61.8036 82.3599 62.4863 81.9653C63.169 81.5599 64.0596 81.3573 65.1583 81.3573C66.257 81.3573 67.0836 81.5493 67.6383 81.9333C68.193 82.3173 68.4703 82.9573 68.4703 83.8533ZM62.7423 83.7253V86.0453L65.7503 85.7413C66.3583 85.6773 66.7476 85.5493 66.9183 85.3573C67.0996 85.1653 67.1903 84.8239 67.1903 84.3333V83.7253C67.1903 82.8933 66.449 82.4773 64.9663 82.4773C63.4836 82.4773 62.7423 82.8933 62.7423 83.7253ZM76.7374 90.9253C76.3854 91.2666 75.7881 91.4373 74.9454 91.4373C74.1028 91.4373 73.5054 91.2666 73.1534 90.9253C72.8014 90.5839 72.5614 90.0239 72.4334 89.2453L71.2494 82.1733C71.2174 81.9493 71.2014 81.8266 71.2014 81.8053C71.2014 81.6133 71.4041 81.5173 71.8094 81.5173C72.2148 81.5173 72.4388 81.6399 72.4814 81.8853L73.6814 89.0693C73.7561 89.5279 73.8734 89.8533 74.0334 90.0453C74.2041 90.2266 74.5081 90.3173 74.9454 90.3173C75.3828 90.3173 75.6814 90.2266 75.8414 90.0453C76.0121 89.8533 76.1348 89.5279 76.2094 89.0693L77.4094 81.8853C77.4521 81.6399 77.6761 81.5173 78.0814 81.5173C78.4868 81.5173 78.6894 81.6133 78.6894 81.8053C78.6894 81.8266 78.6734 81.9493 78.6414 82.1733L77.4574 89.2453C77.3294 90.0239 77.0894 90.5839 76.7374 90.9253ZM88.4391 83.8533V84.3333C88.4391 85.2399 88.2524 85.8639 87.8791 86.2053C87.5057 86.5466 86.8231 86.7653 85.8311 86.8613L82.7111 87.1653V89.0693C82.7111 89.9013 83.4044 90.3173 84.7911 90.3173C86.3697 90.3173 87.1591 89.9546 87.1591 89.2293V88.6213C87.1591 88.3759 87.3724 88.2533 87.7991 88.2533C88.2257 88.2533 88.4391 88.3759 88.4391 88.6213V89.0693C88.4391 90.6479 87.2657 91.4373 84.9191 91.4373C83.8844 91.4373 83.0417 91.2346 82.3911 90.8293C81.7511 90.4239 81.4311 89.7839 81.4311 88.9093V83.8853C81.4311 82.9999 81.7724 82.3599 82.4551 81.9653C83.1377 81.5599 84.0284 81.3573 85.1271 81.3573C86.2257 81.3573 87.0524 81.5493 87.6071 81.9333C88.1617 82.3173 88.4391 82.9573 88.4391 83.8533ZM82.7111 83.7253V86.0453L85.7191 85.7413C86.3271 85.6773 86.7164 85.5493 86.8871 85.3573C87.0684 85.1653 87.1591 84.8239 87.1591 84.3333V83.7253C87.1591 82.8933 86.4177 82.4773 84.9351 82.4773C83.4524 82.4773 82.7111 82.8933 82.7111 83.7253ZM93.0742 78.7653V89.3253C93.0742 89.6666 93.1542 89.9866 93.3142 90.2853C93.4742 90.5733 93.5542 90.7226 93.5542 90.7333C93.5542 90.8613 93.4528 90.9999 93.2502 91.1493C93.0475 91.2879 92.8768 91.3573 92.7382 91.3573C92.5142 91.3573 92.3008 91.1653 92.0982 90.7813C91.8955 90.3866 91.7942 89.9546 91.7942 89.4853V78.7653C91.7942 78.5199 92.0075 78.3973 92.4342 78.3973C92.8608 78.3973 93.0742 78.5199 93.0742 78.7653Z" fill="url(#paint0_linear_200_15)"/>
</g>
<path d="M22.7532 52.3477L49.9205 36.0946L84.2187 54.08L58.3062 73.2609L22.7532 52.3477Z" fill="#D16E6E" fill-opacity="0.7"/>
<path d="M22.7532 49.001L49.9205 32.748L84.2187 50.7333L58.3062 69.9143L22.7532 49.001Z" fill="#E0A671" fill-opacity="0.7"/>
<path d="M22.7532 44.8184L49.9205 28.5653L84.2187 46.5507L58.3062 65.7316L22.7532 44.8184Z" fill="#FCE729" fill-opacity="0.69"/>
<path d="M21.9165 40.6328L49.0838 24.3798L83.3821 42.3652L57.4695 61.5461L21.9165 40.6328Z" fill="#BBE8B4" fill-opacity="0.69"/>
<defs>
<filter id="filter0_d_200_15" x="16.5671" y="78.3975" width="77.2871" height="13.04" filterUnits="userSpaceOnUse" color-interpolation-filters="sRGB">
<feFlood flood-opacity="0" result="BackgroundImageFix"/>
<feColorMatrix in="SourceAlpha" type="matrix" values="0 0 0 0 0 0 0 0 0 0 0 0 0 0 0 0 0 0 127 0" result="hardAlpha"/>
<feOffset dx="0.3"/>
<feComposite in2="hardAlpha" operator="out"/>
<feColorMatrix type="matrix" values="0 0 0 0 0.575604 0 0 0 0 0.583333 0 0 0 0 0.196875 0 0 0 1 0"/>
<feBlend mode="normal" in2="BackgroundImageFix" result="effect1_dropShadow_200_15"/>
<feBlend mode="normal" in="SourceGraphic" in2="effect1_dropShadow_200_15" result="shape"/>
</filter>
<linearGradient id="paint0_linear_200_15" x1="61.3451" y1="75.1973" x2="61.3451" y2="94.986" gradientUnits="userSpaceOnUse">
<stop stop-color="#FEFEFE"/>
<stop offset="0.0642363" stop-color="#FBFFF0"/>
<stop offset="0.276042" stop-color="#FBFBF2"/>
<stop offset="0.588542" stop-color="#FFFAF4"/>
<stop offset="0.652778" stop-color="#F6F7ED"/>
</linearGradient>
</defs>
</svg>
