<svg width="50" height="50" viewBox="0 0 50 50" fill="none" xmlns="http://www.w3.org/2000/svg">
<g filter="url(#filter0_d_128_28)">
<path d="M24.97 4C20.8225 4 16.7682 5.22987 13.3197 7.53408C9.87121 9.8383 7.18342 13.1134 5.59625 16.9451C4.00909 20.7768 3.59381 24.9932 4.40294 29.061C5.21208 33.1287 7.20928 36.8653 10.142 39.798C13.0747 42.7307 16.8112 44.7279 20.879 45.5371C24.9468 46.3461 29.1632 45.9309 32.9948 44.3437C36.8267 42.7567 40.1018 40.0688 42.4059 36.6203C44.7101 33.1718 45.94 29.1175 45.94 24.97C45.94 22.2162 45.3976 19.4894 44.3438 16.9451C43.2899 14.4009 41.7453 12.0892 39.7981 10.142C37.8509 8.19472 35.5391 6.65008 32.9948 5.59624C30.4508 4.54241 27.7238 4 24.97 4ZM33.358 27.0671H24.97C24.4139 27.0671 23.8804 26.8461 23.4872 26.4527C23.0939 26.0596 22.8731 25.5261 22.8731 24.97V16.582C22.8731 16.0258 23.0939 15.4925 23.4872 15.0992C23.8804 14.7059 24.4139 14.485 24.97 14.485C25.5262 14.485 26.0596 14.7059 26.4528 15.0992C26.846 15.4925 27.067 16.0258 27.067 16.582V22.873H33.358C33.9141 22.873 34.4476 23.094 34.8408 23.4872C35.2341 23.8805 35.4551 24.4138 35.4551 24.97C35.4551 25.5261 35.2341 26.0596 34.8408 26.4527C34.4476 26.8461 33.9141 27.0671 33.358 27.0671Z" fill="url(#paint0_diamond_128_28)" shape-rendering="crispEdges"/>
</g>
<defs>
<filter id="filter0_d_128_28" x="0" y="0" width="49.9399" height="49.9404" filterUnits="userSpaceOnUse" color-interpolation-filters="sRGB">
<feFlood flood-opacity="0" result="BackgroundImageFix"/>
<feColorMatrix in="SourceAlpha" type="matrix" values="0 0 0 0 0 0 0 0 0 0 0 0 0 0 0 0 0 0 127 0" result="hardAlpha"/>
<feOffset/>
<feGaussianBlur stdDeviation="2"/>
<feComposite in2="hardAlpha" operator="out"/>
<feColorMatrix type="matrix" values="0 0 0 0 0 0 0 0 0 0 0 0 0 0 0 0 0 0 0.91 0"/>
<feBlend mode="normal" in2="BackgroundImageFix" result="effect1_dropShadow_128_28"/>
<feBlend mode="normal" in="SourceGraphic" in2="effect1_dropShadow_128_28" result="shape"/>
</filter>
<radialGradient id="paint0_diamond_128_28" cx="0" cy="0" r="1" gradientUnits="userSpaceOnUse" gradientTransform="translate(24.97 24.97) rotate(90) scale(20.97)">
<stop offset="0.9999" stop-color="#E5E7A6"/>
<stop offset="1" stop-color="#FFFEF1" stop-opacity="0"/>
</radialGradient>
</defs>
</svg>
