<svg width="50" height="50" viewBox="0 0 50 50" fill="none" xmlns="http://www.w3.org/2000/svg">
<g filter="url(#filter0_d_131_186)">
<path fill-rule="evenodd" clip-rule="evenodd" d="M22.1426 5.16973C22.8506 4.46268 23.7979 4.04664 24.7976 4.00369C25.7972 3.96074 26.7767 4.294 27.5426 4.93773L27.7987 5.17173L31.5986 8.96973H36.9707C37.9795 8.96991 38.951 9.35127 39.6905 10.0374C40.43 10.7235 40.883 11.6638 40.9586 12.6697L40.9706 12.9697V18.3417L44.7707 22.1417C45.4783 22.8497 45.8947 23.7974 45.9376 24.7976C45.9806 25.7977 45.647 26.7776 45.0026 27.5437L44.7686 27.7978L40.9687 31.5977V36.9697C40.969 37.9789 40.5878 38.9509 39.9017 39.6908C39.2155 40.4308 38.275 40.8841 37.2686 40.9597L36.9707 40.9697H31.6007L27.8006 44.7697C27.0926 45.4774 26.1449 45.8938 25.1449 45.9367C24.1447 45.9796 23.1649 45.646 22.3987 45.0017L22.1447 44.7697L18.3446 40.9697H12.9706C11.9615 40.97 10.9895 40.5889 10.2496 39.9028C9.50959 39.2165 9.05633 38.276 8.98064 37.2697L8.97064 36.9697V31.5977L5.17064 27.7978C4.46303 27.0896 4.04664 26.1419 4.00369 25.1419C3.96073 24.1417 4.29435 23.1619 4.93864 22.3957L5.17064 22.1417L8.97064 18.3417V12.9697C8.97083 11.9609 9.35219 10.9894 10.0383 10.2499C10.7245 9.51036 11.6647 9.05739 12.6706 8.98173L12.9706 8.96973H18.3427L22.1426 5.16973ZM31.1287 18.9357L22.6406 27.4237L19.1047 23.8877C18.7294 23.5127 18.2205 23.3021 17.6899 23.3023C17.1594 23.3026 16.6507 23.5135 16.2756 23.8888C15.9006 24.2641 15.6901 24.7729 15.6902 25.3034C15.6904 25.834 15.9014 26.3428 16.2766 26.7178L21.0847 31.5257C21.289 31.7302 21.5315 31.8923 21.7985 32.0029C22.0655 32.1136 22.3517 32.1704 22.6406 32.1704C22.9297 32.1704 23.2159 32.1136 23.4829 32.0029C23.7497 31.8923 23.9924 31.7302 24.1967 31.5257L33.9566 21.7637C34.321 21.3865 34.5226 20.8813 34.5181 20.3569C34.5134 19.8325 34.3031 19.3309 33.9323 18.9601C33.5615 18.5893 33.0599 18.3789 32.5355 18.3744C32.0111 18.3698 31.5059 18.5714 31.1287 18.9357Z" fill="url(#paint0_diamond_131_186)" shape-rendering="crispEdges"/>
</g>
<defs>
<filter id="filter0_d_131_186" x="0" y="0" width="49.9414" height="49.9404" filterUnits="userSpaceOnUse" color-interpolation-filters="sRGB">
<feFlood flood-opacity="0" result="BackgroundImageFix"/>
<feColorMatrix in="SourceAlpha" type="matrix" values="0 0 0 0 0 0 0 0 0 0 0 0 0 0 0 0 0 0 127 0" result="hardAlpha"/>
<feOffset/>
<feGaussianBlur stdDeviation="2"/>
<feComposite in2="hardAlpha" operator="out"/>
<feColorMatrix type="matrix" values="0 0 0 0 0 0 0 0 0 0 0 0 0 0 0 0 0 0 0.55 0"/>
<feBlend mode="normal" in2="BackgroundImageFix" result="effect1_dropShadow_131_186"/>
<feBlend mode="normal" in="SourceGraphic" in2="effect1_dropShadow_131_186" result="shape"/>
</filter>
<radialGradient id="paint0_diamond_131_186" cx="0" cy="0" r="1" gradientUnits="userSpaceOnUse" gradientTransform="translate(24.9706 24.9702) rotate(90) scale(20.9702 20.9706)">
<stop offset="0.9999" stop-color="#D7FFB7"/>
<stop offset="1" stop-color="#DAF0C9" stop-opacity="0"/>
</radialGradient>
</defs>
</svg>
